TITLE ""
FILE "LR_black_phrase_04.mp3" MP3
  TRACK 01 AUDIO
    TITLE "LR_black_phrase_04_0001"
    INDEX 01 00:00:00
  TRACK 02 AUDIO
    TITLE "LR_black_phrase_04_0002"
    INDEX 01 00:00:12
  TRACK 03 AUDIO
    TITLE "LR_black_phrase_04_0003"
    INDEX 01 00:01:20
  TRACK 04 AUDIO
    TITLE "LR_black_phrase_04_0004"
    INDEX 01 00:01:59
  TRACK 05 AUDIO
    TITLE "LR_black_phrase_04_0005"
    INDEX 01 00:03:07
  TRACK 06 AUDIO
    TITLE "LR_black_phrase_04_0006"
    INDEX 01 00:04:08
  TRACK 07 AUDIO
    TITLE "LR_black_phrase_04_0007"
    INDEX 01 00:06:32
  TRACK 08 AUDIO
    TITLE "LR_black_phrase_04_0008"
    INDEX 01 00:06:72
  TRACK 09 AUDIO
    TITLE "LR_black_phrase_04_0009"
    INDEX 01 00:09:46
  TRACK 10 AUDIO
    TITLE "LR_black_phrase_04_0010"
    INDEX 01 00:10:03
  TRACK 11 AUDIO
    TITLE "LR_black_phrase_04_0011"
    INDEX 01 00:12:51
  TRACK 12 AUDIO
    TITLE "LR_black_phrase_04_0012"
    INDEX 01 00:13:58
  TRACK 13 AUDIO
    TITLE "LR_black_phrase_04_0013"
    INDEX 01 00:15:02
  TRACK 14 AUDIO
    TITLE "LR_black_phrase_04_0014"
    INDEX 01 00:15:39
  TRACK 15 AUDIO
    TITLE "LR_black_phrase_04_0015"
    INDEX 01 00:18:16
  TRACK 16 AUDIO
    TITLE "LR_black_phrase_04_0016"
    INDEX 01 00:19:15
  TRACK 17 AUDIO
    TITLE "LR_black_phrase_04_0017"
    INDEX 01 00:21:42
  TRACK 18 AUDIO
    TITLE "LR_black_phrase_04_0018"
    INDEX 01 00:22:04
  TRACK 19 AUDIO
    TITLE "LR_black_phrase_04_0019"
    INDEX 01 00:24:34
  TRACK 20 AUDIO
    TITLE "LR_black_phrase_04_0020"
    INDEX 01 00:24:64
  TRACK 21 AUDIO
    TITLE "LR_black_phrase_04_0021"
    INDEX 01 00:27:19
  TRACK 22 AUDIO
    TITLE "LR_black_phrase_04_0022"
    INDEX 01 00:28:28
  TRACK 23 AUDIO
    TITLE "LR_black_phrase_04_0023"
    INDEX 01 00:29:45
  TRACK 24 AUDIO
    TITLE "LR_black_phrase_04_0024"
    INDEX 01 00:30:09
  TRACK 25 AUDIO
    TITLE "LR_black_phrase_04_0025"
    INDEX 01 00:34:05
  TRACK 26 AUDIO
    TITLE "LR_black_phrase_04_0026"
    INDEX 01 00:34:74
  TRACK 27 AUDIO
    TITLE "LR_black_phrase_04_0027"
    INDEX 01 00:37:58
  TRACK 28 AUDIO
    TITLE "LR_black_phrase_04_0028"
    INDEX 01 00:38:25
  TRACK 29 AUDIO
    TITLE "LR_black_phrase_04_0029"
    INDEX 01 00:41:03
  TRACK 30 AUDIO
    TITLE "LR_black_phrase_04_0030"
    INDEX 01 00:41:35
  TRACK 31 AUDIO
    TITLE "LR_black_phrase_04_0031"
    INDEX 01 00:44:13
  TRACK 32 AUDIO
    TITLE "LR_black_phrase_04_0032"
    INDEX 01 00:45:17
  TRACK 33 AUDIO
    TITLE "LR_black_phrase_04_0033"
    INDEX 01 00:46:40
  TRACK 34 AUDIO
    TITLE "LR_black_phrase_04_0034"
    INDEX 01 00:47:06
  TRACK 35 AUDIO
    TITLE "LR_black_phrase_04_0035"
    INDEX 01 00:48:52
  TRACK 36 AUDIO
    TITLE "LR_black_phrase_04_0036"
    INDEX 01 00:49:52
  TRACK 37 AUDIO
    TITLE "LR_black_phrase_04_0037"
    INDEX 01 00:51:55
  TRACK 38 AUDIO
    TITLE "LR_black_phrase_04_0038"
    INDEX 01 00:52:19
  TRACK 39 AUDIO
    TITLE "LR_black_phrase_04_0039"
    INDEX 01 00:54:51
  TRACK 40 AUDIO
    TITLE "LR_black_phrase_04_0040"
    INDEX 01 00:55:05
  TRACK 41 AUDIO
    TITLE "LR_black_phrase_04_0041"
    INDEX 01 00:57:36
  TRACK 42 AUDIO
    TITLE "LR_black_phrase_04_0042"
    INDEX 01 00:58:39
  TRACK 43 AUDIO
    TITLE "LR_black_phrase_04_0043"
    INDEX 01 00:59:72
  TRACK 44 AUDIO
    TITLE "LR_black_phrase_04_0044"
    INDEX 01 01:00:38
  TRACK 45 AUDIO
    TITLE "LR_black_phrase_04_0045"
    INDEX 01 01:02:74
  TRACK 46 AUDIO
    TITLE "LR_black_phrase_04_0046"
    INDEX 01 01:03:72
  TRACK 47 AUDIO
    TITLE "LR_black_phrase_04_0047"
    INDEX 01 01:06:72
  TRACK 48 AUDIO
    TITLE "LR_black_phrase_04_0048"
    INDEX 01 01:07:40
  TRACK 49 AUDIO
    TITLE "LR_black_phrase_04_0049"
    INDEX 01 01:10:15
  TRACK 50 AUDIO
    TITLE "LR_black_phrase_04_0050"
    INDEX 01 01:10:44
  TRACK 51 AUDIO
    TITLE "LR_black_phrase_04_0051"
    INDEX 01 01:13:21
  TRACK 52 AUDIO
    TITLE "LR_black_phrase_04_0052"
    INDEX 01 01:14:26
  TRACK 53 AUDIO
    TITLE "LR_black_phrase_04_0053"
    INDEX 01 01:15:47
  TRACK 54 AUDIO
    TITLE "LR_black_phrase_04_0054"
    INDEX 01 01:16:12
  TRACK 55 AUDIO
    TITLE "LR_black_phrase_04_0055"
    INDEX 01 01:18:48
  TRACK 56 AUDIO
    TITLE "LR_black_phrase_04_0056"
    INDEX 01 01:19:45
  TRACK 57 AUDIO
    TITLE "LR_black_phrase_04_0057"
    INDEX 01 01:21:15
  TRACK 58 AUDIO
    TITLE "LR_black_phrase_04_0058"
    INDEX 01 01:21:56
  TRACK 59 AUDIO
    TITLE "LR_black_phrase_04_0059"
    INDEX 01 01:23:64
  TRACK 60 AUDIO
    TITLE "LR_black_phrase_04_0060"
    INDEX 01 01:24:21
  TRACK 61 AUDIO
    TITLE "LR_black_phrase_04_0061"
    INDEX 01 01:26:30
  TRACK 62 AUDIO
    TITLE "LR_black_phrase_04_0062"
    INDEX 01 01:27:35
  TRACK 63 AUDIO
    TITLE "LR_black_phrase_04_0063"
    INDEX 01 01:28:56
  TRACK 64 AUDIO
    TITLE "LR_black_phrase_04_0064"
    INDEX 01 01:29:14
  TRACK 65 AUDIO
    TITLE "LR_black_phrase_04_0065"
    INDEX 01 01:31:25
  TRACK 66 AUDIO
    TITLE "LR_black_phrase_04_0066"
    INDEX 01 01:32:24
  TRACK 67 AUDIO
    TITLE "LR_black_phrase_04_0067"
    INDEX 01 01:33:75
  TRACK 68 AUDIO
    TITLE "LR_black_phrase_04_0068"
    INDEX 01 01:34:41
  TRACK 69 AUDIO
    TITLE "LR_black_phrase_04_0069"
    INDEX 01 01:36:48
  TRACK 70 AUDIO
    TITLE "LR_black_phrase_04_0070"
    INDEX 01 01:37:04
  TRACK 71 AUDIO
    TITLE "LR_black_phrase_04_0071"
    INDEX 01 01:39:09
  TRACK 72 AUDIO
    TITLE "LR_black_phrase_04_0072"
    INDEX 01 01:40:14
  TRACK 73 AUDIO
    TITLE "LR_black_phrase_04_0073"
    INDEX 01 01:41:49
  TRACK 74 AUDIO
    TITLE "LR_black_phrase_04_0074"
    INDEX 01 01:42:13
  TRACK 75 AUDIO
    TITLE "LR_black_phrase_04_0075"
    INDEX 01 01:43:34
  TRACK 76 AUDIO
    TITLE "LR_black_phrase_04_0076"
    INDEX 01 01:44:31
  TRACK 77 AUDIO
    TITLE "LR_black_phrase_04_0077"
    INDEX 01 01:46:15
  TRACK 78 AUDIO
    TITLE "LR_black_phrase_04_0078"
    INDEX 01 01:46:58
  TRACK 79 AUDIO
    TITLE "LR_black_phrase_04_0079"
    INDEX 01 01:48:60
  TRACK 80 AUDIO
    TITLE "LR_black_phrase_04_0080"
    INDEX 01 01:49:13
  TRACK 81 AUDIO
    TITLE "LR_black_phrase_04_0081"
    INDEX 01 01:51:16
  TRACK 82 AUDIO
    TITLE "LR_black_phrase_04_0082"
    INDEX 01 01:52:17
  TRACK 83 AUDIO
    TITLE "LR_black_phrase_04_0083"
    INDEX 01 01:53:28
  TRACK 84 AUDIO
    TITLE "LR_black_phrase_04_0084"
    INDEX 01 01:53:68
  TRACK 85 AUDIO
    TITLE "LR_black_phrase_04_0085"
    INDEX 01 01:56:42
  TRACK 86 AUDIO
    TITLE "LR_black_phrase_04_0086"
    INDEX 01 01:57:42
  TRACK 87 AUDIO
    TITLE "LR_black_phrase_04_0087"
    INDEX 01 02:00:15
  TRACK 88 AUDIO
    TITLE "LR_black_phrase_04_0088"
    INDEX 01 02:00:52
  TRACK 89 AUDIO
    TITLE "LR_black_phrase_04_0089"
    INDEX 01 02:03:44
  TRACK 90 AUDIO
    TITLE "LR_black_phrase_04_0090"
    INDEX 01 02:03:72
  TRACK 91 AUDIO
    TITLE "LR_black_phrase_04_0091"
    INDEX 01 02:06:64
  TRACK 92 AUDIO
    TITLE "LR_black_phrase_04_0092"
    INDEX 01 02:07:68
  TRACK 93 AUDIO
    TITLE "LR_black_phrase_04_0093"
    INDEX 01 02:09:04
  TRACK 94 AUDIO
    TITLE "LR_black_phrase_04_0094"
    INDEX 01 02:09:41
  TRACK 95 AUDIO
    TITLE "LR_black_phrase_04_0095"
    INDEX 01 02:12:30
  TRACK 96 AUDIO
    TITLE "LR_black_phrase_04_0096"
    INDEX 01 02:13:27
  TRACK 97 AUDIO
    TITLE "LR_black_phrase_04_0097"
    INDEX 01 02:15:40
  TRACK 98 AUDIO
    TITLE "LR_black_phrase_04_0098"
    INDEX 01 02:16:04
  TRACK 99 AUDIO
    TITLE "LR_black_phrase_04_0099"
    INDEX 01 02:18:19
  TRACK 100 AUDIO
    TITLE "LR_black_phrase_04_0100"
    INDEX 01 02:18:48
  TRACK 101 AUDIO
    TITLE "LR_black_phrase_04_0101"
    INDEX 01 02:20:61
  TRACK 102 AUDIO
    TITLE "LR_black_phrase_04_0102"
    INDEX 01 02:21:56
  TRACK 103 AUDIO
    TITLE "LR_black_phrase_04_0103"
    INDEX 01 02:23:28
  TRACK 104 AUDIO
    TITLE "LR_black_phrase_04_0104"
    INDEX 01 02:23:59
  TRACK 105 AUDIO
    TITLE "LR_black_phrase_04_0105"
    INDEX 01 02:25:46
  TRACK 106 AUDIO
    TITLE "LR_black_phrase_04_0106"
    INDEX 01 02:26:43
  TRACK 107 AUDIO
    TITLE "LR_black_phrase_04_0107"
    INDEX 01 02:29:57
  TRACK 108 AUDIO
    TITLE "LR_black_phrase_04_0108"
    INDEX 01 02:30:18
  TRACK 109 AUDIO
    TITLE "LR_black_phrase_04_0109"
    INDEX 01 02:32:68
  TRACK 110 AUDIO
    TITLE "LR_black_phrase_04_0110"
    INDEX 01 02:33:12
  TRACK 111 AUDIO
    TITLE "LR_black_phrase_04_0111"
    INDEX 01 02:35:62
  TRACK 112 AUDIO
    TITLE "LR_black_phrase_04_0112"
    INDEX 01 02:36:58
  TRACK 113 AUDIO
    TITLE "LR_black_phrase_04_0113"
    INDEX 01 02:37:75
  TRACK 114 AUDIO
    TITLE "LR_black_phrase_04_0114"
    INDEX 01 02:38:37
  TRACK 115 AUDIO
    TITLE "LR_black_phrase_04_0115"
    INDEX 01 02:40:04
  TRACK 116 AUDIO
    TITLE "LR_black_phrase_04_0116"
    INDEX 01 02:41:04
  TRACK 117 AUDIO
    TITLE "LR_black_phrase_04_0117"
    INDEX 01 02:43:42
  TRACK 118 AUDIO
    TITLE "LR_black_phrase_04_0118"
    INDEX 01 02:43:75
  TRACK 119 AUDIO
    TITLE "LR_black_phrase_04_0119"
    INDEX 01 02:46:46
  TRACK 120 AUDIO
    TITLE "LR_black_phrase_04_0120"
    INDEX 01 02:46:68
  TRACK 121 AUDIO
    TITLE "LR_black_phrase_04_0121"
    INDEX 01 02:49:39
  TRACK 122 AUDIO
    TITLE "LR_black_phrase_04_0122"
    INDEX 01 02:50:36
  TRACK 123 AUDIO
    TITLE "LR_black_phrase_04_0123"
    INDEX 01 02:51:59
  TRACK 124 AUDIO
    TITLE "LR_black_phrase_04_0124"
    INDEX 01 02:52:25
  TRACK 125 AUDIO
    TITLE "LR_black_phrase_04_0125"
    INDEX 01 02:53:44
  TRACK 126 AUDIO
    TITLE "LR_black_phrase_04_0126"
    INDEX 01 02:54:44
  TRACK 127 AUDIO
    TITLE "LR_black_phrase_04_0127"
    INDEX 01 02:56:25
  TRACK 128 AUDIO
    TITLE "LR_black_phrase_04_0128"
    INDEX 01 02:56:62
  TRACK 129 AUDIO
    TITLE "LR_black_phrase_04_0129"
    INDEX 01 02:58:59
  TRACK 130 AUDIO
    TITLE "LR_black_phrase_04_0130"
    INDEX 01 02:59:06
  TRACK 131 AUDIO
    TITLE "LR_black_phrase_04_0131"
    INDEX 01 03:01:05
  TRACK 132 AUDIO
    TITLE "LR_black_phrase_04_0132"
    INDEX 01 03:01:75
  TRACK 133 AUDIO
    TITLE "LR_black_phrase_04_0133"
    INDEX 01 03:03:02
  TRACK 134 AUDIO
    TITLE "LR_black_phrase_04_0134"
    INDEX 01 03:03:41
  TRACK 135 AUDIO
    TITLE "LR_black_phrase_04_0135"
    INDEX 01 03:06:08
  TRACK 136 AUDIO
    TITLE "LR_black_phrase_04_0136"
    INDEX 01 03:07:07
  TRACK 137 AUDIO
    TITLE "LR_black_phrase_04_0137"
    INDEX 01 03:09:39
  TRACK 138 AUDIO
    TITLE "LR_black_phrase_04_0138"
    INDEX 01 03:10:06
  TRACK 139 AUDIO
    TITLE "LR_black_phrase_04_0139"
    INDEX 01 03:12:28
  TRACK 140 AUDIO
    TITLE "LR_black_phrase_04_0140"
    INDEX 01 03:12:51
  TRACK 141 AUDIO
    TITLE "LR_black_phrase_04_0141"
    INDEX 01 03:15:01
  TRACK 142 AUDIO
    TITLE "LR_black_phrase_04_0142"
    INDEX 01 03:15:73
  TRACK 143 AUDIO
    TITLE "LR_black_phrase_04_0143"
    INDEX 01 03:17:10
  TRACK 144 AUDIO
    TITLE "LR_black_phrase_04_0144"
    INDEX 01 03:17:45
  TRACK 145 AUDIO
    TITLE "LR_black_phrase_04_0145"
    INDEX 01 03:21:17
  TRACK 146 AUDIO
    TITLE "LR_black_phrase_04_0146"
    INDEX 01 03:22:15
  TRACK 147 AUDIO
    TITLE "LR_black_phrase_04_0147"
    INDEX 01 03:25:42
  TRACK 148 AUDIO
    TITLE "LR_black_phrase_04_0148"
    INDEX 01 03:26:01
  TRACK 149 AUDIO
    TITLE "LR_black_phrase_04_0149"
    INDEX 01 03:29:11
  TRACK 150 AUDIO
    TITLE "LR_black_phrase_04_0150"
    INDEX 01 03:29:32
  TRACK 151 AUDIO
    TITLE "LR_black_phrase_04_0151"
    INDEX 01 03:32:44
  TRACK 152 AUDIO
    TITLE "LR_black_phrase_04_0152"
    INDEX 01 03:33:40
  TRACK 153 AUDIO
    TITLE "LR_black_phrase_04_0153"
    INDEX 01 03:34:55
  TRACK 154 AUDIO
    TITLE "LR_black_phrase_04_0154"
    INDEX 01 03:35:15
  TRACK 155 AUDIO
    TITLE "LR_black_phrase_04_0155"
    INDEX 01 03:37:16
  TRACK 156 AUDIO
    TITLE "LR_black_phrase_04_0156"
    INDEX 01 03:38:18
  TRACK 157 AUDIO
    TITLE "LR_black_phrase_04_0157"
    INDEX 01 03:40:46
  TRACK 158 AUDIO
    TITLE "LR_black_phrase_04_0158"
    INDEX 01 03:41:08
  TRACK 159 AUDIO
    TITLE "LR_black_phrase_04_0159"
    INDEX 01 03:43:32
  TRACK 160 AUDIO
    TITLE "LR_black_phrase_04_0160"
    INDEX 01 03:43:58
  TRACK 161 AUDIO
    TITLE "LR_black_phrase_04_0161"
    INDEX 01 03:46:09
  TRACK 162 AUDIO
    TITLE "LR_black_phrase_04_0162"
    INDEX 01 03:47:05
  TRACK 163 AUDIO
    TITLE "LR_black_phrase_04_0163"
    INDEX 01 03:48:18
  TRACK 164 AUDIO
    TITLE "LR_black_phrase_04_0164"
    INDEX 01 03:48:53
  TRACK 165 AUDIO
    TITLE "LR_black_phrase_04_0165"
    INDEX 01 03:49:70
  TRACK 166 AUDIO
    TITLE "LR_black_phrase_04_0166"
    INDEX 01 03:50:68
  TRACK 167 AUDIO
    TITLE "LR_black_phrase_04_0167"
    INDEX 01 03:53:29
  TRACK 168 AUDIO
    TITLE "LR_black_phrase_04_0168"
    INDEX 01 03:53:62
  TRACK 169 AUDIO
    TITLE "LR_black_phrase_04_0169"
    INDEX 01 03:55:59
  TRACK 170 AUDIO
    TITLE "LR_black_phrase_04_0170"
    INDEX 01 03:56:06
  TRACK 171 AUDIO
    TITLE "LR_black_phrase_04_0171"
    INDEX 01 03:58:03
  TRACK 172 AUDIO
    TITLE "LR_black_phrase_04_0172"
    INDEX 01 03:58:71
  TRACK 173 AUDIO
    TITLE "LR_black_phrase_04_0173"
    INDEX 01 04:00:27
  TRACK 174 AUDIO
    TITLE "LR_black_phrase_04_0174"
    INDEX 01 04:00:64
  TRACK 175 AUDIO
    TITLE "LR_black_phrase_04_0175"
    INDEX 01 04:04:15
  TRACK 176 AUDIO
    TITLE "LR_black_phrase_04_0176"
    INDEX 01 04:05:14
  TRACK 177 AUDIO
    TITLE "LR_black_phrase_04_0177"
    INDEX 01 04:07:62
  TRACK 178 AUDIO
    TITLE "LR_black_phrase_04_0178"
    INDEX 01 04:08:28
  TRACK 179 AUDIO
    TITLE "LR_black_phrase_04_0179"
    INDEX 01 04:10:33
  TRACK 180 AUDIO
    TITLE "LR_black_phrase_04_0180"
    INDEX 01 04:10:61
  TRACK 181 AUDIO
    TITLE "LR_black_phrase_04_0181"
    INDEX 01 04:12:63
  TRACK 182 AUDIO
    TITLE "LR_black_phrase_04_0182"
    INDEX 01 04:13:57
  TRACK 183 AUDIO
    TITLE "LR_black_phrase_04_0183"
    INDEX 01 04:14:54
  TRACK 184 AUDIO
    TITLE "LR_black_phrase_04_0184"
    INDEX 01 04:15:15
  TRACK 185 AUDIO
    TITLE "LR_black_phrase_04_0185"
    INDEX 01 04:16:18
  TRACK 186 AUDIO
    TITLE "LR_black_phrase_04_0186"
    INDEX 01 04:17:14
  TRACK 187 AUDIO
    TITLE "LR_black_phrase_04_0187"
    INDEX 01 04:19:09
  TRACK 188 AUDIO
    TITLE "LR_black_phrase_04_0188"
    INDEX 01 04:19:42
  TRACK 189 AUDIO
    TITLE "LR_black_phrase_04_0189"
    INDEX 01 04:21:49
  TRACK 190 AUDIO
    TITLE "LR_black_phrase_04_0190"
    INDEX 01 04:21:70
  TRACK 191 AUDIO
    TITLE "LR_black_phrase_04_0191"
    INDEX 01 04:24:02
  TRACK 192 AUDIO
    TITLE "LR_black_phrase_04_0192"
    INDEX 01 04:24:72
  TRACK 193 AUDIO
    TITLE "LR_black_phrase_04_0193"
    INDEX 01 04:26:13
  TRACK 194 AUDIO
    TITLE "LR_black_phrase_04_0194"
    INDEX 01 04:26:48
  TRACK 195 AUDIO
    TITLE "LR_black_phrase_04_0195"
    INDEX 01 04:29:46
  TRACK 196 AUDIO
    TITLE "LR_black_phrase_04_0196"
    INDEX 01 04:30:46
  TRACK 197 AUDIO
    TITLE "LR_black_phrase_04_0197"
    INDEX 01 04:32:66
  TRACK 198 AUDIO
    TITLE "LR_black_phrase_04_0198"
    INDEX 01 04:33:22
  TRACK 199 AUDIO
    TITLE "LR_black_phrase_04_0199"
    INDEX 01 04:35:43
  TRACK 200 AUDIO
    TITLE "LR_black_phrase_04_0200"
    INDEX 01 04:35:63
  TRACK 201 AUDIO
    TITLE "LR_black_phrase_04_0201"
    INDEX 01 04:38:08
  TRACK 202 AUDIO
    TITLE "LR_black_phrase_04_0202"
    INDEX 01 04:39:07
  TRACK 203 AUDIO
    TITLE "LR_black_phrase_04_0203"
    INDEX 01 04:40:26
  TRACK 204 AUDIO
    TITLE "LR_black_phrase_04_0204"
    INDEX 01 04:40:68
  TRACK 205 AUDIO
    TITLE "LR_black_phrase_04_0205"
    INDEX 01 04:43:21
  TRACK 206 AUDIO
    TITLE "LR_black_phrase_04_0206"
    INDEX 01 04:44:20
  TRACK 207 AUDIO
    TITLE "LR_black_phrase_04_0207"
    INDEX 01 04:46:23
  TRACK 208 AUDIO
    TITLE "LR_black_phrase_04_0208"
    INDEX 01 04:46:64
  TRACK 209 AUDIO
    TITLE "LR_black_phrase_04_0209"
    INDEX 01 04:49:59
  TRACK 210 AUDIO
    TITLE "LR_black_phrase_04_0210"
    INDEX 01 04:50:15
  TRACK 211 AUDIO
    TITLE "LR_black_phrase_04_0211"
    INDEX 01 04:53:08
  TRACK 212 AUDIO
    TITLE "LR_black_phrase_04_0212"
    INDEX 01 04:54:15
  TRACK 213 AUDIO
    TITLE "LR_black_phrase_04_0213"
    INDEX 01 04:55:34
  TRACK 214 AUDIO
    TITLE "LR_black_phrase_04_0214"
    INDEX 01 04:56:02
  TRACK 215 AUDIO
    TITLE "LR_black_phrase_04_0215"
    INDEX 01 04:57:21
  TRACK 216 AUDIO
    TITLE "LR_black_phrase_04_0216"
    INDEX 01 04:58:19
  TRACK 217 AUDIO
    TITLE "LR_black_phrase_04_0217"
    INDEX 01 05:00:74
  TRACK 218 AUDIO
    TITLE "LR_black_phrase_04_0218"
    INDEX 01 05:01:40
  TRACK 219 AUDIO
    TITLE "LR_black_phrase_04_0219"
    INDEX 01 05:04:05
  TRACK 220 AUDIO
    TITLE "LR_black_phrase_04_0220"
    INDEX 01 05:04:35
  TRACK 221 AUDIO
    TITLE "LR_black_phrase_04_0221"
    INDEX 01 05:06:75
  TRACK 222 AUDIO
    TITLE "LR_black_phrase_04_0222"
    INDEX 01 05:08:05
  TRACK 223 AUDIO
    TITLE "LR_black_phrase_04_0223"
    INDEX 01 05:09:32
  TRACK 224 AUDIO
    TITLE "LR_black_phrase_04_0224"
    INDEX 01 05:09:69
  TRACK 225 AUDIO
    TITLE "LR_black_phrase_04_0225"
    INDEX 01 05:12:44
  TRACK 226 AUDIO
    TITLE "LR_black_phrase_04_0226"
    INDEX 01 05:13:42
  TRACK 227 AUDIO
    TITLE "LR_black_phrase_04_0227"
    INDEX 01 05:15:46
  TRACK 228 AUDIO
    TITLE "LR_black_phrase_04_0228"
    INDEX 01 05:16:09
  TRACK 229 AUDIO
    TITLE "LR_black_phrase_04_0229"
    INDEX 01 05:18:07
  TRACK 230 AUDIO
    TITLE "LR_black_phrase_04_0230"
    INDEX 01 05:18:33
  TRACK 231 AUDIO
    TITLE "LR_black_phrase_04_0231"
    INDEX 01 05:20:32
  TRACK 232 AUDIO
    TITLE "LR_black_phrase_04_0232"
    INDEX 01 05:21:37
  TRACK 233 AUDIO
    TITLE "LR_black_phrase_04_0233"
    INDEX 01 05:22:68
  TRACK 234 AUDIO
    TITLE "LR_black_phrase_04_0234"
    INDEX 01 05:23:32
  TRACK 235 AUDIO
    TITLE "LR_black_phrase_04_0235"
    INDEX 01 05:25:19
  TRACK 236 AUDIO
    TITLE "LR_black_phrase_04_0236"
    INDEX 01 05:26:19
  TRACK 237 AUDIO
    TITLE "LR_black_phrase_04_0237"
    INDEX 01 05:28:59
  TRACK 238 AUDIO
    TITLE "LR_black_phrase_04_0238"
    INDEX 01 05:29:25
  TRACK 239 AUDIO
    TITLE "LR_black_phrase_04_0239"
    INDEX 01 05:31:69
  TRACK 240 AUDIO
    TITLE "LR_black_phrase_04_0240"
    INDEX 01 05:32:27
  TRACK 241 AUDIO
    TITLE "LR_black_phrase_04_0241"
    INDEX 01 05:34:69
  TRACK 242 AUDIO
    TITLE "LR_black_phrase_04_0242"
    INDEX 01 05:35:75
  TRACK 243 AUDIO
    TITLE "LR_black_phrase_04_0243"
    INDEX 01 05:37:15
  TRACK 244 AUDIO
    TITLE "LR_black_phrase_04_0244"
    INDEX 01 05:37:56
  TRACK 245 AUDIO
    TITLE "LR_black_phrase_04_0245"
    INDEX 01 05:40:48
  TRACK 246 AUDIO
    TITLE "LR_black_phrase_04_0246"
    INDEX 01 05:41:48
  TRACK 247 AUDIO
    TITLE "LR_black_phrase_04_0247"
    INDEX 01 05:44:19
  TRACK 248 AUDIO
    TITLE "LR_black_phrase_04_0248"
    INDEX 01 05:44:58
  TRACK 249 AUDIO
    TITLE "LR_black_phrase_04_0249"
    INDEX 01 05:47:13
  TRACK 250 AUDIO
    TITLE "LR_black_phrase_04_0250"
    INDEX 01 05:47:42
  TRACK 251 AUDIO
    TITLE "LR_black_phrase_04_0251"
    INDEX 01 05:49:73
  TRACK 252 AUDIO
    TITLE "LR_black_phrase_04_0252"
    INDEX 01 05:51:03
  TRACK 253 AUDIO
    TITLE "LR_black_phrase_04_0253"
    INDEX 01 05:52:24
  TRACK 254 AUDIO
    TITLE "LR_black_phrase_04_0254"
    INDEX 01 05:52:63
  TRACK 255 AUDIO
    TITLE "LR_black_phrase_04_0255"
    INDEX 01 05:55:28
  TRACK 256 AUDIO
    TITLE "LR_black_phrase_04_0256"
    INDEX 01 05:56:28
  TRACK 257 AUDIO
    TITLE "LR_black_phrase_04_0257"
    INDEX 01 05:58:07
  TRACK 258 AUDIO
    TITLE "LR_black_phrase_04_0258"
    INDEX 01 05:58:44
  TRACK 259 AUDIO
    TITLE "LR_black_phrase_04_0259"
    INDEX 01 06:00:29
  TRACK 260 AUDIO
    TITLE "LR_black_phrase_04_0260"
    INDEX 01 06:00:57
  TRACK 261 AUDIO
    TITLE "LR_black_phrase_04_0261"
    INDEX 01 06:02:44
  TRACK 262 AUDIO
    TITLE "LR_black_phrase_04_0262"
    INDEX 01 06:03:51
  TRACK 263 AUDIO
    TITLE "LR_black_phrase_04_0263"
    INDEX 01 06:04:66
  TRACK 264 AUDIO
    TITLE "LR_black_phrase_04_0264"
    INDEX 01 06:05:33
  TRACK 265 AUDIO
    TITLE "LR_black_phrase_04_0265"
    INDEX 01 06:07:37
  TRACK 266 AUDIO
    TITLE "LR_black_phrase_04_0266"
    INDEX 01 06:08:33
  TRACK 267 AUDIO
    TITLE "LR_black_phrase_04_0267"
    INDEX 01 06:11:06
  TRACK 268 AUDIO
    TITLE "LR_black_phrase_04_0268"
    INDEX 01 06:11:45
  TRACK 269 AUDIO
    TITLE "LR_black_phrase_04_0269"
    INDEX 01 06:13:54
  TRACK 270 AUDIO
    TITLE "LR_black_phrase_04_0270"
    INDEX 01 06:14:08
  TRACK 271 AUDIO
    TITLE "LR_black_phrase_04_0271"
    INDEX 01 06:16:15
  TRACK 272 AUDIO
    TITLE "LR_black_phrase_04_0272"
    INDEX 01 06:17:14
  TRACK 273 AUDIO
    TITLE "LR_black_phrase_04_0273"
    INDEX 01 06:18:27
  TRACK 274 AUDIO
    TITLE "LR_black_phrase_04_0274"
    INDEX 01 06:18:68
  TRACK 275 AUDIO
    TITLE "LR_black_phrase_04_0275"
    INDEX 01 06:20:58
  TRACK 276 AUDIO
    TITLE "LR_black_phrase_04_0276"
    INDEX 01 06:21:57
  TRACK 277 AUDIO
    TITLE "LR_black_phrase_04_0277"
    INDEX 01 06:23:60
  TRACK 278 AUDIO
    TITLE "LR_black_phrase_04_0278"
    INDEX 01 06:24:24
  TRACK 279 AUDIO
    TITLE "LR_black_phrase_04_0279"
    INDEX 01 06:26:21
  TRACK 280 AUDIO
    TITLE "LR_black_phrase_04_0280"
    INDEX 01 06:26:52
  TRACK 281 AUDIO
    TITLE "LR_black_phrase_04_0281"
    INDEX 01 06:28:47
  TRACK 282 AUDIO
    TITLE "LR_black_phrase_04_0282"
    INDEX 01 06:29:55
  TRACK 283 AUDIO
    TITLE "LR_black_phrase_04_0283"
    INDEX 01 06:30:52
  TRACK 284 AUDIO
    TITLE "LR_black_phrase_04_0284"
    INDEX 01 06:31:18
  TRACK 285 AUDIO
    TITLE "LR_black_phrase_04_0285"
    INDEX 01 06:33:05
  TRACK 286 AUDIO
    TITLE "LR_black_phrase_04_0286"
    INDEX 01 06:34:07
  TRACK 287 AUDIO
    TITLE "LR_black_phrase_04_0287"
    INDEX 01 06:36:61
  TRACK 288 AUDIO
    TITLE "LR_black_phrase_04_0288"
    INDEX 01 06:37:23
  TRACK 289 AUDIO
    TITLE "LR_black_phrase_04_0289"
    INDEX 01 06:39:33
  TRACK 290 AUDIO
    TITLE "LR_black_phrase_04_0290"
    INDEX 01 06:39:63
  TRACK 291 AUDIO
    TITLE "LR_black_phrase_04_0291"
    INDEX 01 06:41:73
  TRACK 292 AUDIO
    TITLE "LR_black_phrase_04_0292"
    INDEX 01 06:43:04
  TRACK 293 AUDIO
    TITLE "LR_black_phrase_04_0293"
    INDEX 01 06:44:25
  TRACK 294 AUDIO
    TITLE "LR_black_phrase_04_0294"
    INDEX 01 06:44:66
  TRACK 295 AUDIO
    TITLE "LR_black_phrase_04_0295"
    INDEX 01 06:47:19
  TRACK 296 AUDIO
    TITLE "LR_black_phrase_04_0296"
    INDEX 01 06:48:17
  TRACK 297 AUDIO
    TITLE "LR_black_phrase_04_0297"
    INDEX 01 06:50:29
  TRACK 298 AUDIO
    TITLE "LR_black_phrase_04_0298"
    INDEX 01 06:50:66
  TRACK 299 AUDIO
    TITLE "LR_black_phrase_04_0299"
    INDEX 01 06:53:26
  TRACK 300 AUDIO
    TITLE "LR_black_phrase_04_0300"
    INDEX 01 06:53:55
  TRACK 301 AUDIO
    TITLE "LR_black_phrase_04_0301"
    INDEX 01 06:56:14
  TRACK 302 AUDIO
    TITLE "LR_black_phrase_04_0302"
    INDEX 01 06:57:14
  TRACK 303 AUDIO
    TITLE "LR_black_phrase_04_0303"
    INDEX 01 06:58:17
  TRACK 304 AUDIO
    TITLE "LR_black_phrase_04_0304"
    INDEX 01 06:58:52
  TRACK 305 AUDIO
    TITLE "LR_black_phrase_04_0305"
    INDEX 01 07:00:53
  TRACK 306 AUDIO
    TITLE "LR_black_phrase_04_0306"
    INDEX 01 07:01:53
  TRACK 307 AUDIO
    TITLE "LR_black_phrase_04_0307"
    INDEX 01 07:04:24
  TRACK 308 AUDIO
    TITLE "LR_black_phrase_04_0308"
    INDEX 01 07:04:59
  TRACK 309 AUDIO
    TITLE "LR_black_phrase_04_0309"
    INDEX 01 07:08:02
  TRACK 310 AUDIO
    TITLE "LR_black_phrase_04_0310"
    INDEX 01 07:08:23
  TRACK 311 AUDIO
    TITLE "LR_black_phrase_04_0311"
    INDEX 01 07:11:43
  TRACK 312 AUDIO
    TITLE "LR_black_phrase_04_0312"
    INDEX 01 07:12:43
  TRACK 313 AUDIO
    TITLE "LR_black_phrase_04_0313"
    INDEX 01 07:13:64
  TRACK 314 AUDIO
    TITLE "LR_black_phrase_04_0314"
    INDEX 01 07:14:26
  TRACK 315 AUDIO
    TITLE "LR_black_phrase_04_0315"
    INDEX 01 07:16:54
  TRACK 316 AUDIO
    TITLE "LR_black_phrase_04_0316"
    INDEX 01 07:17:52
  TRACK 317 AUDIO
    TITLE "LR_black_phrase_04_0317"
    INDEX 01 07:20:36
  TRACK 318 AUDIO
    TITLE "LR_black_phrase_04_0318"
    INDEX 01 07:20:70
  TRACK 319 AUDIO
    TITLE "LR_black_phrase_04_0319"
    INDEX 01 07:23:37
  TRACK 320 AUDIO
    TITLE "LR_black_phrase_04_0320"
    INDEX 01 07:23:58
  TRACK 321 AUDIO
    TITLE "LR_black_phrase_04_0321"
    INDEX 01 07:26:23
  TRACK 322 AUDIO
    TITLE "LR_black_phrase_04_0322"
    INDEX 01 07:27:21
  TRACK 323 AUDIO
    TITLE "LR_black_phrase_04_0323"
    INDEX 01 07:28:40
  TRACK 324 AUDIO
    TITLE "LR_black_phrase_04_0324"
    INDEX 01 07:28:75
  TRACK 325 AUDIO
    TITLE "LR_black_phrase_04_0325"
    INDEX 01 07:31:36
  TRACK 326 AUDIO
    TITLE "LR_black_phrase_04_0326"
    INDEX 01 07:32:36
  TRACK 327 AUDIO
    TITLE "LR_black_phrase_04_0327"
    INDEX 01 07:33:74
  TRACK 328 AUDIO
    TITLE "LR_black_phrase_04_0328"
    INDEX 01 07:34:34
  TRACK 329 AUDIO
    TITLE "LR_black_phrase_04_0329"
    INDEX 01 07:36:27
  TRACK 330 AUDIO
    TITLE "LR_black_phrase_04_0330"
    INDEX 01 07:36:47
  TRACK 331 AUDIO
    TITLE "LR_black_phrase_04_0331"
    INDEX 01 07:38:38
  TRACK 332 AUDIO
    TITLE "LR_black_phrase_04_0332"
    INDEX 01 07:39:36
  TRACK 333 AUDIO
    TITLE "LR_black_phrase_04_0333"
    INDEX 01 07:40:51
  TRACK 334 AUDIO
    TITLE "LR_black_phrase_04_0334"
    INDEX 01 07:41:15
  TRACK 335 AUDIO
    TITLE "LR_black_phrase_04_0335"
    INDEX 01 07:42:42
  TRACK 336 AUDIO
    TITLE "LR_black_phrase_04_0336"
    INDEX 01 07:43:41
  TRACK 337 AUDIO
    TITLE "LR_black_phrase_04_0337"
    INDEX 01 07:45:71
  TRACK 338 AUDIO
    TITLE "LR_black_phrase_04_0338"
    INDEX 01 07:46:34
  TRACK 339 AUDIO
    TITLE "LR_black_phrase_04_0339"
    INDEX 01 07:48:44
  TRACK 340 AUDIO
    TITLE "LR_black_phrase_04_0340"
    INDEX 01 07:48:64
  TRACK 341 AUDIO
    TITLE "LR_black_phrase_04_0341"
    INDEX 01 07:51:04
  TRACK 342 AUDIO
    TITLE "LR_black_phrase_04_0342"
    INDEX 01 07:51:72
  TRACK 343 AUDIO
    TITLE "LR_black_phrase_04_0343"
    INDEX 01 07:53:04
  TRACK 344 AUDIO
    TITLE "LR_black_phrase_04_0344"
    INDEX 01 07:53:46
  TRACK 345 AUDIO
    TITLE "LR_black_phrase_04_0345"
    INDEX 01 07:57:04
  TRACK 346 AUDIO
    TITLE "LR_black_phrase_04_0346"
    INDEX 01 07:58:02
  TRACK 347 AUDIO
    TITLE "LR_black_phrase_04_0347"
    INDEX 01 08:02:01
  TRACK 348 AUDIO
    TITLE "LR_black_phrase_04_0348"
    INDEX 01 08:02:37
  TRACK 349 AUDIO
    TITLE "LR_black_phrase_04_0349"
    INDEX 01 08:07:26
  TRACK 350 AUDIO
    TITLE "LR_black_phrase_04_0350"
    INDEX 01 08:07:46
  TRACK 351 AUDIO
    TITLE "LR_black_phrase_04_0351"
    INDEX 01 08:12:33
  TRACK 352 AUDIO
    TITLE "LR_black_phrase_04_0352"
    INDEX 01 08:13:29
  TRACK 353 AUDIO
    TITLE "LR_black_phrase_04_0353"
    INDEX 01 08:14:38
  TRACK 354 AUDIO
    TITLE "LR_black_phrase_04_0354"
    INDEX 01 08:14:73
  TRACK 355 AUDIO
    TITLE "LR_black_phrase_04_0355"
    INDEX 01 08:17:22
  TRACK 356 AUDIO
    TITLE "LR_black_phrase_04_0356"
    INDEX 01 08:18:20
  TRACK 357 AUDIO
    TITLE "LR_black_phrase_04_0357"
    INDEX 01 08:20:48
  TRACK 358 AUDIO
    TITLE "LR_black_phrase_04_0358"
    INDEX 01 08:21:10
  TRACK 359 AUDIO
    TITLE "LR_black_phrase_04_0359"
    INDEX 01 08:23:35
  TRACK 360 AUDIO
    TITLE "LR_black_phrase_04_0360"
    INDEX 01 08:23:56
  TRACK 361 AUDIO
    TITLE "LR_black_phrase_04_0361"
    INDEX 01 08:26:06
  TRACK 362 AUDIO
    TITLE "LR_black_phrase_04_0362"
    INDEX 01 08:26:74
  TRACK 363 AUDIO
    TITLE "LR_black_phrase_04_0363"
    INDEX 01 08:28:30
  TRACK 364 AUDIO
    TITLE "LR_black_phrase_04_0364"
    INDEX 01 08:28:63
  TRACK 365 AUDIO
    TITLE "LR_black_phrase_04_0365"
    INDEX 01 08:30:09
  TRACK 366 AUDIO
    TITLE "LR_black_phrase_04_0366"
    INDEX 01 08:31:09
  TRACK 367 AUDIO
    TITLE "LR_black_phrase_04_0367"
    INDEX 01 08:32:49
  TRACK 368 AUDIO
    TITLE "LR_black_phrase_04_0368"
    INDEX 01 08:33:10
  TRACK 369 AUDIO
    TITLE "LR_black_phrase_04_0369"
    INDEX 01 08:35:15
  TRACK 370 AUDIO
    TITLE "LR_black_phrase_04_0370"
    INDEX 01 08:35:36
  TRACK 371 AUDIO
    TITLE "LR_black_phrase_04_0371"
    INDEX 01 08:37:39
  TRACK 372 AUDIO
    TITLE "LR_black_phrase_04_0372"
    INDEX 01 08:38:36
  TRACK 373 AUDIO
    TITLE "LR_black_phrase_04_0373"
    INDEX 01 08:40:06
  TRACK 374 AUDIO
    TITLE "LR_black_phrase_04_0374"
    INDEX 01 08:40:43
  TRACK 375 AUDIO
    TITLE "LR_black_phrase_04_0375"
    INDEX 01 08:42:34
  TRACK 376 AUDIO
    TITLE "LR_black_phrase_04_0376"
    INDEX 01 08:43:32
  TRACK 377 AUDIO
    TITLE "LR_black_phrase_04_0377"
    INDEX 01 08:45:01
  TRACK 378 AUDIO
    TITLE "LR_black_phrase_04_0378"
    INDEX 01 08:45:34
  TRACK 379 AUDIO
    TITLE "LR_black_phrase_04_0379"
    INDEX 01 08:47:73
  TRACK 380 AUDIO
    TITLE "LR_black_phrase_04_0380"
    INDEX 01 08:48:17
  TRACK 381 AUDIO
    TITLE "LR_black_phrase_04_0381"
    INDEX 01 08:50:55
  TRACK 382 AUDIO
    TITLE "LR_black_phrase_04_0382"
    INDEX 01 08:51:51
  TRACK 383 AUDIO
    TITLE "LR_black_phrase_04_0383"
    INDEX 01 08:52:66
  TRACK 384 AUDIO
    TITLE "LR_black_phrase_04_0384"
    INDEX 01 08:53:28
  TRACK 385 AUDIO
    TITLE "LR_black_phrase_04_0385"
    INDEX 01 08:55:41
  TRACK 386 AUDIO
    TITLE "LR_black_phrase_04_0386"
    INDEX 01 08:56:38
  TRACK 387 AUDIO
    TITLE "LR_black_phrase_04_0387"
    INDEX 01 08:58:41
  TRACK 388 AUDIO
    TITLE "LR_black_phrase_04_0388"
    INDEX 01 08:58:74
  TRACK 389 AUDIO
    TITLE "LR_black_phrase_04_0389"
    INDEX 01 09:01:04
  TRACK 390 AUDIO
    TITLE "LR_black_phrase_04_0390"
    INDEX 01 09:01:26
  TRACK 391 AUDIO
    TITLE "LR_black_phrase_04_0391"
    INDEX 01 09:03:28
  TRACK 392 AUDIO
    TITLE "LR_black_phrase_04_0392"
    INDEX 01 09:04:26
  TRACK 393 AUDIO
    TITLE "LR_black_phrase_04_0393"
    INDEX 01 09:05:31
  TRACK 394 AUDIO
    TITLE "LR_black_phrase_04_0394"
    INDEX 01 09:05:65
  TRACK 395 AUDIO
    TITLE "LR_black_phrase_04_0395"
    INDEX 01 09:07:69
  TRACK 396 AUDIO
    TITLE "LR_black_phrase_04_0396"
    INDEX 01 09:08:67
  TRACK 397 AUDIO
    TITLE "LR_black_phrase_04_0397"
    INDEX 01 09:11:18
  TRACK 398 AUDIO
    TITLE "LR_black_phrase_04_0398"
    INDEX 01 09:11:50
  TRACK 399 AUDIO
    TITLE "LR_black_phrase_04_0399"
    INDEX 01 09:13:52
  TRACK 400 AUDIO
    TITLE "LR_black_phrase_04_0400"
    INDEX 01 09:14:01
  TRACK 401 AUDIO
    TITLE "LR_black_phrase_04_0401"
    INDEX 01 09:16:02
  TRACK 402 AUDIO
    TITLE "LR_black_phrase_04_0402"
    INDEX 01 09:17:05
  TRACK 403 AUDIO
    TITLE "LR_black_phrase_04_0403"
    INDEX 01 09:18:20
  TRACK 404 AUDIO
    TITLE "LR_black_phrase_04_0404"
    INDEX 01 09:18:59
  TRACK 405 AUDIO
    TITLE "LR_black_phrase_04_0405"
    INDEX 01 09:20:58
  TRACK 406 AUDIO
    TITLE "LR_black_phrase_04_0406"
    INDEX 01 09:21:58
  TRACK 407 AUDIO
    TITLE "LR_black_phrase_04_0407"
    INDEX 01 09:24:01
  TRACK 408 AUDIO
    TITLE "LR_black_phrase_04_0408"
    INDEX 01 09:24:40
  TRACK 409 AUDIO
    TITLE "LR_black_phrase_04_0409"
    INDEX 01 09:27:07
  TRACK 410 AUDIO
    TITLE "LR_black_phrase_04_0410"
    INDEX 01 09:27:37
  TRACK 411 AUDIO
    TITLE "LR_black_phrase_04_0411"
    INDEX 01 09:30:04
  TRACK 412 AUDIO
    TITLE "LR_black_phrase_04_0412"
    INDEX 01 09:31:09
  TRACK 413 AUDIO
    TITLE "LR_black_phrase_04_0413"
    INDEX 01 09:32:22
  TRACK 414 AUDIO
    TITLE "LR_black_phrase_04_0414"
    INDEX 01 09:32:61
  TRACK 415 AUDIO
    TITLE "LR_black_phrase_04_0415"
    INDEX 01 09:35:17
  TRACK 416 AUDIO
    TITLE "LR_black_phrase_04_0416"
    INDEX 01 09:36:14
  TRACK 417 AUDIO
    TITLE "LR_black_phrase_04_0417"
    INDEX 01 09:38:70
  TRACK 418 AUDIO
    TITLE "LR_black_phrase_04_0418"
    INDEX 01 09:39:34
  TRACK 419 AUDIO
    TITLE "LR_black_phrase_04_0419"
    INDEX 01 09:41:62
  TRACK 420 AUDIO
    TITLE "LR_black_phrase_04_0420"
    INDEX 01 09:42:17
  TRACK 421 AUDIO
    TITLE "LR_black_phrase_04_0421"
    INDEX 01 09:44:45
  TRACK 422 AUDIO
    TITLE "LR_black_phrase_04_0422"
    INDEX 01 09:45:50
  TRACK 423 AUDIO
    TITLE "LR_black_phrase_04_0423"
    INDEX 01 09:47:10
  TRACK 424 AUDIO
    TITLE "LR_black_phrase_04_0424"
    INDEX 01 09:47:47
  TRACK 425 AUDIO
    TITLE "LR_black_phrase_04_0425"
    INDEX 01 09:49:64
  TRACK 426 AUDIO
    TITLE "LR_black_phrase_04_0426"
    INDEX 01 09:50:65
  TRACK 427 AUDIO
    TITLE "LR_black_phrase_04_0427"
    INDEX 01 09:53:56
  TRACK 428 AUDIO
    TITLE "LR_black_phrase_04_0428"
    INDEX 01 09:54:26
  TRACK 429 AUDIO
    TITLE "LR_black_phrase_04_0429"
    INDEX 01 09:56:62
  TRACK 430 AUDIO
    TITLE "LR_black_phrase_04_0430"
    INDEX 01 09:57:18
  TRACK 431 AUDIO
    TITLE "LR_black_phrase_04_0431"
    INDEX 01 09:59:54
  TRACK 432 AUDIO
    TITLE "LR_black_phrase_04_0432"
    INDEX 01 10:00:58
  TRACK 433 AUDIO
    TITLE "LR_black_phrase_04_0433"
    INDEX 01 10:02:08
  TRACK 434 AUDIO
    TITLE "LR_black_phrase_04_0434"
    INDEX 01 10:02:45
  TRACK 435 AUDIO
    TITLE "LR_black_phrase_04_0435"
    INDEX 01 10:05:24
  TRACK 436 AUDIO
    TITLE "LR_black_phrase_04_0436"
    INDEX 01 10:06:25
  TRACK 437 AUDIO
    TITLE "LR_black_phrase_04_0437"
    INDEX 01 10:09:21
  TRACK 438 AUDIO
    TITLE "LR_black_phrase_04_0438"
    INDEX 01 10:09:57
  TRACK 439 AUDIO
    TITLE "LR_black_phrase_04_0439"
    INDEX 01 10:12:26
  TRACK 440 AUDIO
    TITLE "LR_black_phrase_04_0440"
    INDEX 01 10:12:53
  TRACK 441 AUDIO
    TITLE "LR_black_phrase_04_0441"
    INDEX 01 10:15:20
  TRACK 442 AUDIO
    TITLE "LR_black_phrase_04_0442"
    INDEX 01 10:16:22
  TRACK 443 AUDIO
    TITLE "LR_black_phrase_04_0443"
    INDEX 01 10:17:46
  TRACK 444 AUDIO
    TITLE "LR_black_phrase_04_0444"
    INDEX 01 10:18:09
  TRACK 445 AUDIO
    TITLE "LR_black_phrase_04_0445"
    INDEX 01 10:21:07
  TRACK 446 AUDIO
    TITLE "LR_black_phrase_04_0446"
    INDEX 01 10:22:07
  TRACK 447 AUDIO
    TITLE "LR_black_phrase_04_0447"
    INDEX 01 10:24:07
  TRACK 448 AUDIO
    TITLE "LR_black_phrase_04_0448"
    INDEX 01 10:24:48
  TRACK 449 AUDIO
    TITLE "LR_black_phrase_04_0449"
    INDEX 01 10:26:43
  TRACK 450 AUDIO
    TITLE "LR_black_phrase_04_0450"
    INDEX 01 10:26:73
  TRACK 451 AUDIO
    TITLE "LR_black_phrase_04_0451"
    INDEX 01 10:28:68
  TRACK 452 AUDIO
    TITLE "LR_black_phrase_04_0452"
    INDEX 01 10:29:73
  TRACK 453 AUDIO
    TITLE "LR_black_phrase_04_0453"
    INDEX 01 10:31:29
  TRACK 454 AUDIO
    TITLE "LR_black_phrase_04_0454"
    INDEX 01 10:31:70
  TRACK 455 AUDIO
    TITLE "LR_black_phrase_04_0455"
    INDEX 01 10:34:35
  TRACK 456 AUDIO
    TITLE "LR_black_phrase_04_0456"
    INDEX 01 10:35:35
  TRACK 457 AUDIO
    TITLE "LR_black_phrase_04_0457"
    INDEX 01 10:37:02
  TRACK 458 AUDIO
    TITLE "LR_black_phrase_04_0458"
    INDEX 01 10:37:41
  TRACK 459 AUDIO
    TITLE "LR_black_phrase_04_0459"
    INDEX 01 10:39:27
  TRACK 460 AUDIO
    TITLE "LR_black_phrase_04_0460"
    INDEX 01 10:39:54
  TRACK 461 AUDIO
    TITLE "LR_black_phrase_04_0461"
    INDEX 01 10:41:39
  TRACK 462 AUDIO
    TITLE "LR_black_phrase_04_0462"
    INDEX 01 10:42:42
  TRACK 463 AUDIO
    TITLE "LR_black_phrase_04_0463"
    INDEX 01 10:43:52
  TRACK 464 AUDIO
    TITLE "LR_black_phrase_04_0464"
    INDEX 01 10:44:18
  TRACK 465 AUDIO
    TITLE "LR_black_phrase_04_0465"
    INDEX 01 10:45:29
  TRACK 466 AUDIO
    TITLE "LR_black_phrase_04_0466"
    INDEX 01 10:46:30
  TRACK 467 AUDIO
    TITLE "LR_black_phrase_04_0467"
    INDEX 01 10:47:71
  TRACK 468 AUDIO
    TITLE "LR_black_phrase_04_0468"
    INDEX 01 10:48:37
  TRACK 469 AUDIO
    TITLE "LR_black_phrase_04_0469"
    INDEX 01 10:50:15
  TRACK 470 AUDIO
    TITLE "LR_black_phrase_04_0470"
    INDEX 01 10:50:44
  TRACK 471 AUDIO
    TITLE "LR_black_phrase_04_0471"
    INDEX 01 10:52:23
  TRACK 472 AUDIO
    TITLE "LR_black_phrase_04_0472"
    INDEX 01 10:53:29
  TRACK 473 AUDIO
    TITLE "LR_black_phrase_04_0473"
    INDEX 01 10:54:61
  TRACK 474 AUDIO
    TITLE "LR_black_phrase_04_0474"
    INDEX 01 10:55:26
  TRACK 475 AUDIO
    TITLE "LR_black_phrase_04_0475"
    INDEX 01 10:57:56
  TRACK 476 AUDIO
    TITLE "LR_black_phrase_04_0476"
    INDEX 01 10:58:55
  TRACK 477 AUDIO
    TITLE "LR_black_phrase_04_0477"
    INDEX 01 11:00:31
  TRACK 478 AUDIO
    TITLE "LR_black_phrase_04_0478"
    INDEX 01 11:00:68
  TRACK 479 AUDIO
    TITLE "LR_black_phrase_04_0479"
    INDEX 01 11:03:05
  TRACK 480 AUDIO
    TITLE "LR_black_phrase_04_0480"
    INDEX 01 11:03:35
  TRACK 481 AUDIO
    TITLE "LR_black_phrase_04_0481"
    INDEX 01 11:05:47
  TRACK 482 AUDIO
    TITLE "LR_black_phrase_04_0482"
    INDEX 01 11:06:53
  TRACK 483 AUDIO
    TITLE "LR_black_phrase_04_0483"
    INDEX 01 11:07:72
  TRACK 484 AUDIO
    TITLE "LR_black_phrase_04_0484"
    INDEX 01 11:08:38
  TRACK 485 AUDIO
    TITLE "LR_black_phrase_04_0485"
    INDEX 01 11:10:56
  TRACK 486 AUDIO
    TITLE "LR_black_phrase_04_0486"
    INDEX 01 11:11:54
  TRACK 487 AUDIO
    TITLE "LR_black_phrase_04_0487"
    INDEX 01 11:13:31
  TRACK 488 AUDIO
    TITLE "LR_black_phrase_04_0488"
    INDEX 01 11:13:70
  TRACK 489 AUDIO
    TITLE "LR_black_phrase_04_0489"
    INDEX 01 11:16:02
  TRACK 490 AUDIO
    TITLE "LR_black_phrase_04_0490"
    INDEX 01 11:16:30
  TRACK 491 AUDIO
    TITLE "LR_black_phrase_04_0491"
    INDEX 01 11:18:36
  TRACK 492 AUDIO
    TITLE "LR_black_phrase_04_0492"
    INDEX 01 11:19:40
  TRACK 493 AUDIO
    TITLE "LR_black_phrase_04_0493"
    INDEX 01 11:20:74
  TRACK 494 AUDIO
    TITLE "LR_black_phrase_04_0494"
    INDEX 01 11:21:37
  TRACK 495 AUDIO
    TITLE "LR_black_phrase_04_0495"
    INDEX 01 11:22:50
  TRACK 496 AUDIO
    TITLE "LR_black_phrase_04_0496"
    INDEX 01 11:23:47
  TRACK 497 AUDIO
    TITLE "LR_black_phrase_04_0497"
    INDEX 01 11:25:42
  TRACK 498 AUDIO
    TITLE "LR_black_phrase_04_0498"
    INDEX 01 11:26:07
  TRACK 499 AUDIO
    TITLE "LR_black_phrase_04_0499"
    INDEX 01 11:28:05
  TRACK 500 AUDIO
    TITLE "LR_black_phrase_04_0500"
    INDEX 01 11:28:35
  TRACK 501 AUDIO
    TITLE "LR_black_phrase_04_0501"
    INDEX 01 11:30:36
  TRACK 502 AUDIO
    TITLE "LR_black_phrase_04_0502"
    INDEX 01 11:31:35
  TRACK 503 AUDIO
    TITLE "LR_black_phrase_04_0503"
    INDEX 01 11:32:46
  TRACK 504 AUDIO
    TITLE "LR_black_phrase_04_0504"
    INDEX 01 11:33:09
  TRACK 505 AUDIO
    TITLE "LR_black_phrase_04_0505"
    INDEX 01 11:35:52
  TRACK 506 AUDIO
    TITLE "LR_black_phrase_04_0506"
    INDEX 01 11:36:48
  TRACK 507 AUDIO
    TITLE "LR_black_phrase_04_0507"
    INDEX 01 11:40:28
  TRACK 508 AUDIO
    TITLE "LR_black_phrase_04_0508"
    INDEX 01 11:40:65
  TRACK 509 AUDIO
    TITLE "LR_black_phrase_04_0509"
    INDEX 01 11:44:14
  TRACK 510 AUDIO
    TITLE "LR_black_phrase_04_0510"
    INDEX 01 11:44:34
  TRACK 511 AUDIO
    TITLE "LR_black_phrase_04_0511"
    INDEX 01 11:47:60
  TRACK 512 AUDIO
    TITLE "LR_black_phrase_04_0512"
    INDEX 01 11:48:55
  TRACK 513 AUDIO
    TITLE "LR_black_phrase_04_0513"
    INDEX 01 11:50:13
  TRACK 514 AUDIO
    TITLE "LR_black_phrase_04_0514"
    INDEX 01 11:50:52
  TRACK 515 AUDIO
    TITLE "LR_black_phrase_04_0515"
    INDEX 01 11:52:22
  TRACK 516 AUDIO
    TITLE "LR_black_phrase_04_0516"
    INDEX 01 11:53:19
  TRACK 517 AUDIO
    TITLE "LR_black_phrase_04_0517"
    INDEX 01 11:56:55
  TRACK 518 AUDIO
    TITLE "LR_black_phrase_04_0518"
    INDEX 01 11:57:13
  TRACK 519 AUDIO
    TITLE "LR_black_phrase_04_0519"
    INDEX 01 12:00:11
  TRACK 520 AUDIO
    TITLE "LR_black_phrase_04_0520"
    INDEX 01 12:00:33
  TRACK 521 AUDIO
    TITLE "LR_black_phrase_04_0521"
    INDEX 01 12:03:29
  TRACK 522 AUDIO
    TITLE "LR_black_phrase_04_0522"
    INDEX 01 12:04:23
  TRACK 523 AUDIO
    TITLE "LR_black_phrase_04_0523"
    INDEX 01 12:05:48
  TRACK 524 AUDIO
    TITLE "LR_black_phrase_04_0524"
    INDEX 01 12:06:10
  TRACK 525 AUDIO
    TITLE "LR_black_phrase_04_0525"
    INDEX 01 12:09:44
  TRACK 526 AUDIO
    TITLE "LR_black_phrase_04_0526"
    INDEX 01 12:10:43
  TRACK 527 AUDIO
    TITLE "LR_black_phrase_04_0527"
    INDEX 01 12:12:61
  TRACK 528 AUDIO
    TITLE "LR_black_phrase_04_0528"
    INDEX 01 12:13:20
  TRACK 529 AUDIO
    TITLE "LR_black_phrase_04_0529"
    INDEX 01 12:15:38
  TRACK 530 AUDIO
    TITLE "LR_black_phrase_04_0530"
    INDEX 01 12:15:58
  TRACK 531 AUDIO
    TITLE "LR_black_phrase_04_0531"
    INDEX 01 12:18:01
  TRACK 532 AUDIO
    TITLE "LR_black_phrase_04_0532"
    INDEX 01 12:18:70
  TRACK 533 AUDIO
    TITLE "LR_black_phrase_04_0533"
    INDEX 01 12:20:22
  TRACK 534 AUDIO
    TITLE "LR_black_phrase_04_0534"
    INDEX 01 12:20:59
  TRACK 535 AUDIO
    TITLE "LR_black_phrase_04_0535"
    INDEX 01 12:22:46
  TRACK 536 AUDIO
    TITLE "LR_black_phrase_04_0536"
    INDEX 01 12:23:46
  TRACK 537 AUDIO
    TITLE "LR_black_phrase_04_0537"
    INDEX 01 12:26:01
  TRACK 538 AUDIO
    TITLE "LR_black_phrase_04_0538"
    INDEX 01 12:26:34
  TRACK 539 AUDIO
    TITLE "LR_black_phrase_04_0539"
    INDEX 01 12:29:19
  TRACK 540 AUDIO
    TITLE "LR_black_phrase_04_0540"
    INDEX 01 12:29:38
  TRACK 541 AUDIO
    TITLE "LR_black_phrase_04_0541"
    INDEX 01 12:32:21
  TRACK 542 AUDIO
    TITLE "LR_black_phrase_04_0542"
    INDEX 01 12:33:15
  TRACK 543 AUDIO
    TITLE "LR_black_phrase_04_0543"
    INDEX 01 12:34:49
  TRACK 544 AUDIO
    TITLE "LR_black_phrase_04_0544"
    INDEX 01 12:35:10
  TRACK 545 AUDIO
    TITLE "LR_black_phrase_04_0545"
    INDEX 01 12:38:31
  TRACK 546 AUDIO
    TITLE "LR_black_phrase_04_0546"
    INDEX 01 12:39:33
  TRACK 547 AUDIO
    TITLE "LR_black_phrase_04_0547"
    INDEX 01 12:42:12
  TRACK 548 AUDIO
    TITLE "LR_black_phrase_04_0548"
    INDEX 01 12:42:45
  TRACK 549 AUDIO
    TITLE "LR_black_phrase_04_0549"
    INDEX 01 12:45:04
  TRACK 550 AUDIO
    TITLE "LR_black_phrase_04_0550"
    INDEX 01 12:45:26
  TRACK 551 AUDIO
    TITLE "LR_black_phrase_04_0551"
    INDEX 01 12:47:60
  TRACK 552 AUDIO
    TITLE "LR_black_phrase_04_0552"
    INDEX 01 12:48:59
  TRACK 553 AUDIO
    TITLE "LR_black_phrase_04_0553"
    INDEX 01 12:49:70
  TRACK 554 AUDIO
    TITLE "LR_black_phrase_04_0554"
    INDEX 01 12:50:33
  TRACK 555 AUDIO
    TITLE "LR_black_phrase_04_0555"
    INDEX 01 12:53:02
  TRACK 556 AUDIO
    TITLE "LR_black_phrase_04_0556"
    INDEX 01 12:53:74
  TRACK 557 AUDIO
    TITLE "LR_black_phrase_04_0557"
    INDEX 01 12:55:36
  TRACK 558 AUDIO
    TITLE "LR_black_phrase_04_0558"
    INDEX 01 12:55:69
  TRACK 559 AUDIO
    TITLE "LR_black_phrase_04_0559"
    INDEX 01 12:57:54
  TRACK 560 AUDIO
    TITLE "LR_black_phrase_04_0560"
    INDEX 01 12:58:03
  TRACK 561 AUDIO
    TITLE "LR_black_phrase_04_0561"
    INDEX 01 12:59:53
  TRACK 562 AUDIO
    TITLE "LR_black_phrase_04_0562"
    INDEX 01 13:00:60
  TRACK 563 AUDIO
    TITLE "LR_black_phrase_04_0563"
    INDEX 01 13:02:01
  TRACK 564 AUDIO
    TITLE "LR_black_phrase_04_0564"
    INDEX 01 13:02:32
  TRACK 565 AUDIO
    TITLE "LR_black_phrase_04_0565"
    INDEX 01 13:03:51
  TRACK 566 AUDIO
    TITLE "LR_black_phrase_04_0566"
    INDEX 01 13:04:50
  TRACK 567 AUDIO
    TITLE "LR_black_phrase_04_0567"
    INDEX 01 13:06:32
  TRACK 568 AUDIO
    TITLE "LR_black_phrase_04_0568"
    INDEX 01 13:06:65
  TRACK 569 AUDIO
    TITLE "LR_black_phrase_04_0569"
    INDEX 01 13:08:62
  TRACK 570 AUDIO
    TITLE "LR_black_phrase_04_0570"
    INDEX 01 13:09:05
  TRACK 571 AUDIO
    TITLE "LR_black_phrase_04_0571"
    INDEX 01 13:11:03
  TRACK 572 AUDIO
    TITLE "LR_black_phrase_04_0572"
    INDEX 01 13:11:72
  TRACK 573 AUDIO
    TITLE "LR_black_phrase_04_0573"
    INDEX 01 13:13:12
  TRACK 574 AUDIO
    TITLE "LR_black_phrase_04_0574"
    INDEX 01 13:13:49
  TRACK 575 AUDIO
    TITLE "LR_black_phrase_04_0575"
    INDEX 01 13:16:11
  TRACK 576 AUDIO
    TITLE "LR_black_phrase_04_0576"
    INDEX 01 13:17:10
  TRACK 577 AUDIO
    TITLE "LR_black_phrase_04_0577"
    INDEX 01 13:18:66
  TRACK 578 AUDIO
    TITLE "LR_black_phrase_04_0578"
    INDEX 01 13:19:25
  TRACK 579 AUDIO
    TITLE "LR_black_phrase_04_0579"
    INDEX 01 13:21:23
  TRACK 580 AUDIO
    TITLE "LR_black_phrase_04_0580"
    INDEX 01 13:21:41
  TRACK 581 AUDIO
    TITLE "LR_black_phrase_04_0581"
    INDEX 01 13:23:42
  TRACK 582 AUDIO
    TITLE "LR_black_phrase_04_0582"
    INDEX 01 13:24:39
  TRACK 583 AUDIO
    TITLE "LR_black_phrase_04_0583"
    INDEX 01 13:25:60
  TRACK 584 AUDIO
    TITLE "LR_black_phrase_04_0584"
    INDEX 01 13:26:23
  TRACK 585 AUDIO
    TITLE "LR_black_phrase_04_0585"
    INDEX 01 13:27:59
  TRACK 586 AUDIO
    TITLE "LR_black_phrase_04_0586"
    INDEX 01 13:28:59
  TRACK 587 AUDIO
    TITLE "LR_black_phrase_04_0587"
    INDEX 01 13:31:34
  TRACK 588 AUDIO
    TITLE "LR_black_phrase_04_0588"
    INDEX 01 13:31:65
  TRACK 589 AUDIO
    TITLE "LR_black_phrase_04_0589"
    INDEX 01 13:34:30
  TRACK 590 AUDIO
    TITLE "LR_black_phrase_04_0590"
    INDEX 01 13:34:50
  TRACK 591 AUDIO
    TITLE "LR_black_phrase_04_0591"
    INDEX 01 13:37:15
  TRACK 592 AUDIO
    TITLE "LR_black_phrase_04_0592"
    INDEX 01 13:38:10
  TRACK 593 AUDIO
    TITLE "LR_black_phrase_04_0593"
    INDEX 01 13:39:29
  TRACK 594 AUDIO
    TITLE "LR_black_phrase_04_0594"
    INDEX 01 13:39:64
  TRACK 595 AUDIO
    TITLE "LR_black_phrase_04_0595"
    INDEX 01 13:42:37
  TRACK 596 AUDIO
    TITLE "LR_black_phrase_04_0596"
    INDEX 01 13:43:37
  TRACK 597 AUDIO
    TITLE "LR_black_phrase_04_0597"
    INDEX 01 13:45:73
  TRACK 598 AUDIO
    TITLE "LR_black_phrase_04_0598"
    INDEX 01 13:46:31
  TRACK 599 AUDIO
    TITLE "LR_black_phrase_04_0599"
    INDEX 01 13:49:20
  TRACK 600 AUDIO
    TITLE "LR_black_phrase_04_0600"
    INDEX 01 13:49:41
  TRACK 601 AUDIO
    TITLE "LR_black_phrase_04_0601"
    INDEX 01 13:52:26
  TRACK 602 AUDIO
    TITLE "LR_black_phrase_04_0602"
    INDEX 01 13:53:27
  TRACK 603 AUDIO
    TITLE "LR_black_phrase_04_0603"
    INDEX 01 13:54:44
  TRACK 604 AUDIO
    TITLE "LR_black_phrase_04_0604"
    INDEX 01 13:55:11
  TRACK 605 AUDIO
    TITLE "LR_black_phrase_04_0605"
    INDEX 01 13:56:61
  TRACK 606 AUDIO
    TITLE "LR_black_phrase_04_0606"
    INDEX 01 13:57:60
  TRACK 607 AUDIO
    TITLE "LR_black_phrase_04_0607"
    INDEX 01 14:00:69
  TRACK 608 AUDIO
    TITLE "LR_black_phrase_04_0608"
    INDEX 01 14:01:35
  TRACK 609 AUDIO
    TITLE "LR_black_phrase_04_0609"
    INDEX 01 14:04:08
  TRACK 610 AUDIO
    TITLE "LR_black_phrase_04_0610"
    INDEX 01 14:04:37
  TRACK 611 AUDIO
    TITLE "LR_black_phrase_04_0611"
    INDEX 01 14:07:14
  TRACK 612 AUDIO
    TITLE "LR_black_phrase_04_0612"
    INDEX 01 14:08:17
  TRACK 613 AUDIO
    TITLE "LR_black_phrase_04_0613"
    INDEX 01 14:09:38
  TRACK 614 AUDIO
    TITLE "LR_black_phrase_04_0614"
    INDEX 01 14:10:02
  TRACK 615 AUDIO
    TITLE "LR_black_phrase_04_0615"
    INDEX 01 14:12:66
  TRACK 616 AUDIO
    TITLE "LR_black_phrase_04_0616"
    INDEX 01 14:13:65
  TRACK 617 AUDIO
    TITLE "LR_black_phrase_04_0617"
    INDEX 01 14:16:44
  TRACK 618 AUDIO
    TITLE "LR_black_phrase_04_0618"
    INDEX 01 14:17:08
  TRACK 619 AUDIO
    TITLE "LR_black_phrase_04_0619"
    INDEX 01 14:20:18
  TRACK 620 AUDIO
    TITLE "LR_black_phrase_04_0620"
    INDEX 01 14:20:50
  TRACK 621 AUDIO
    TITLE "LR_black_phrase_04_0621"
    INDEX 01 14:23:62
  TRACK 622 AUDIO
    TITLE "LR_black_phrase_04_0622"
    INDEX 01 14:24:67
  TRACK 623 AUDIO
    TITLE "LR_black_phrase_04_0623"
    INDEX 01 14:26:05
  TRACK 624 AUDIO
    TITLE "LR_black_phrase_04_0624"
    INDEX 01 14:26:44
  TRACK 625 AUDIO
    TITLE "LR_black_phrase_04_0625"
    INDEX 01 14:29:06
  TRACK 626 AUDIO
    TITLE "LR_black_phrase_04_0626"
    INDEX 01 14:30:05
  TRACK 627 AUDIO
    TITLE "LR_black_phrase_04_0627"
    INDEX 01 14:33:05
  TRACK 628 AUDIO
    TITLE "LR_black_phrase_04_0628"
    INDEX 01 14:33:45
  TRACK 629 AUDIO
    TITLE "LR_black_phrase_04_0629"
    INDEX 01 14:35:71
  TRACK 630 AUDIO
    TITLE "LR_black_phrase_04_0630"
    INDEX 01 14:36:25
  TRACK 631 AUDIO
    TITLE "LR_black_phrase_04_0631"
    INDEX 01 14:38:52
  TRACK 632 AUDIO
    TITLE "LR_black_phrase_04_0632"
    INDEX 01 14:39:55
  TRACK 633 AUDIO
    TITLE "LR_black_phrase_04_0633"
    INDEX 01 14:40:64
  TRACK 634 AUDIO
    TITLE "LR_black_phrase_04_0634"
    INDEX 01 14:41:26
  TRACK 635 AUDIO
    TITLE "LR_black_phrase_04_0635"
    INDEX 01 14:42:28
  TRACK 636 AUDIO
    TITLE "LR_black_phrase_04_0636"
    INDEX 01 14:43:27
  TRACK 637 AUDIO
    TITLE "LR_black_phrase_04_0637"
    INDEX 01 14:44:68
  TRACK 638 AUDIO
    TITLE "LR_black_phrase_04_0638"
    INDEX 01 14:45:32
  TRACK 639 AUDIO
    TITLE "LR_black_phrase_04_0639"
    INDEX 01 14:47:56
  TRACK 640 AUDIO
    TITLE "LR_black_phrase_04_0640"
    INDEX 01 14:48:13
  TRACK 641 AUDIO
    TITLE "LR_black_phrase_04_0641"
    INDEX 01 14:50:37
  TRACK 642 AUDIO
    TITLE "LR_black_phrase_04_0642"
    INDEX 01 14:51:42
  TRACK 643 AUDIO
    TITLE "LR_black_phrase_04_0643"
    INDEX 01 14:52:58
  TRACK 644 AUDIO
    TITLE "LR_black_phrase_04_0644"
    INDEX 01 14:53:24
  TRACK 645 AUDIO
    TITLE "LR_black_phrase_04_0645"
    INDEX 01 14:54:51
  TRACK 646 AUDIO
    TITLE "LR_black_phrase_04_0646"
    INDEX 01 14:55:50
  TRACK 647 AUDIO
    TITLE "LR_black_phrase_04_0647"
    INDEX 01 14:57:72
  TRACK 648 AUDIO
    TITLE "LR_black_phrase_04_0648"
    INDEX 01 14:58:35
  TRACK 649 AUDIO
    TITLE "LR_black_phrase_04_0649"
    INDEX 01 15:00:45
  TRACK 650 AUDIO
    TITLE "LR_black_phrase_04_0650"
    INDEX 01 15:00:75
  TRACK 651 AUDIO
    TITLE "LR_black_phrase_04_0651"
    INDEX 01 15:03:10
  TRACK 652 AUDIO
    TITLE "LR_black_phrase_04_0652"
    INDEX 01 15:04:14
  TRACK 653 AUDIO
    TITLE "LR_black_phrase_04_0653"
    INDEX 01 15:05:25
  TRACK 654 AUDIO
    TITLE "LR_black_phrase_04_0654"
    INDEX 01 15:05:64
  TRACK 655 AUDIO
    TITLE "LR_black_phrase_04_0655"
    INDEX 01 15:08:55
  TRACK 656 AUDIO
    TITLE "LR_black_phrase_04_0656"
    INDEX 01 15:09:54
  TRACK 657 AUDIO
    TITLE "LR_black_phrase_04_0657"
    INDEX 01 15:12:03
  TRACK 658 AUDIO
    TITLE "LR_black_phrase_04_0658"
    INDEX 01 15:12:43
  TRACK 659 AUDIO
    TITLE "LR_black_phrase_04_0659"
    INDEX 01 15:14:69
  TRACK 660 AUDIO
    TITLE "LR_black_phrase_04_0660"
    INDEX 01 15:15:25
  TRACK 661 AUDIO
    TITLE "LR_black_phrase_04_0661"
    INDEX 01 15:17:52
  TRACK 662 AUDIO
    TITLE "LR_black_phrase_04_0662"
    INDEX 01 15:18:57
  TRACK 663 AUDIO
    TITLE "LR_black_phrase_04_0663"
    INDEX 01 15:20:11
  TRACK 664 AUDIO
    TITLE "LR_black_phrase_04_0664"
    INDEX 01 15:20:46
  TRACK 665 AUDIO
    TITLE "LR_black_phrase_04_0665"
    INDEX 01 15:22:27
  TRACK 666 AUDIO
    TITLE "LR_black_phrase_04_0666"
    INDEX 01 15:23:27
  TRACK 667 AUDIO
    TITLE "LR_black_phrase_04_0667"
    INDEX 01 15:26:45
  TRACK 668 AUDIO
    TITLE "LR_black_phrase_04_0668"
    INDEX 01 15:27:09
  TRACK 669 AUDIO
    TITLE "LR_black_phrase_04_0669"
    INDEX 01 15:29:39
  TRACK 670 AUDIO
    TITLE "LR_black_phrase_04_0670"
    INDEX 01 15:29:70
  TRACK 671 AUDIO
    TITLE "LR_black_phrase_04_0671"
    INDEX 01 15:32:24
  TRACK 672 AUDIO
    TITLE "LR_black_phrase_04_0672"
    INDEX 01 15:33:31
  TRACK 673 AUDIO
    TITLE "LR_black_phrase_04_0673"
    INDEX 01 15:34:58
  TRACK 674 AUDIO
    TITLE "LR_black_phrase_04_0674"
    INDEX 01 15:35:22
  TRACK 675 AUDIO
    TITLE "LR_black_phrase_04_0675"
    INDEX 01 15:37:56
  TRACK 676 AUDIO
    TITLE "LR_black_phrase_04_0676"
    INDEX 01 15:38:56
  TRACK 677 AUDIO
    TITLE "LR_black_phrase_04_0677"
    INDEX 01 15:40:70
  TRACK 678 AUDIO
    TITLE "LR_black_phrase_04_0678"
    INDEX 01 15:41:34
  TRACK 679 AUDIO
    TITLE "LR_black_phrase_04_0679"
    INDEX 01 15:43:41
  TRACK 680 AUDIO
    TITLE "LR_black_phrase_04_0680"
    INDEX 01 15:43:71
  TRACK 681 AUDIO
    TITLE "LR_black_phrase_04_0681"
    INDEX 01 15:45:75
  TRACK 682 AUDIO
    TITLE "LR_black_phrase_04_0682"
    INDEX 01 15:47:06
  TRACK 683 AUDIO
    TITLE "LR_black_phrase_04_0683"
    INDEX 01 15:48:23
  TRACK 684 AUDIO
    TITLE "LR_black_phrase_04_0684"
    INDEX 01 15:48:62
  TRACK 685 AUDIO
    TITLE "LR_black_phrase_04_0685"
    INDEX 01 15:52:36
  TRACK 686 AUDIO
    TITLE "LR_black_phrase_04_0686"
    INDEX 01 15:53:36
  TRACK 687 AUDIO
    TITLE "LR_black_phrase_04_0687"
    INDEX 01 15:56:36
  TRACK 688 AUDIO
    TITLE "LR_black_phrase_04_0688"
    INDEX 01 15:56:75
  TRACK 689 AUDIO
    TITLE "LR_black_phrase_04_0689"
    INDEX 01 15:59:66
  TRACK 690 AUDIO
    TITLE "LR_black_phrase_04_0690"
    INDEX 01 16:00:20
  TRACK 691 AUDIO
    TITLE "LR_black_phrase_04_0691"
    INDEX 01 16:03:11
  TRACK 692 AUDIO
    TITLE "LR_black_phrase_04_0692"
    INDEX 01 16:04:14
  TRACK 693 AUDIO
    TITLE "LR_black_phrase_04_0693"
    INDEX 01 16:05:21
  TRACK 694 AUDIO
    TITLE "LR_black_phrase_04_0694"
    INDEX 01 16:05:58
  TRACK 695 AUDIO
    TITLE "LR_black_phrase_04_0695"
    INDEX 01 16:08:24
  TRACK 696 AUDIO
    TITLE "LR_black_phrase_04_0696"
    INDEX 01 16:09:21
  TRACK 697 AUDIO
    TITLE "LR_black_phrase_04_0697"
    INDEX 01 16:10:71
  TRACK 698 AUDIO
    TITLE "LR_black_phrase_04_0698"
    INDEX 01 16:11:36
  TRACK 699 AUDIO
    TITLE "LR_black_phrase_04_0699"
    INDEX 01 16:13:34
  TRACK 700 AUDIO
    TITLE "LR_black_phrase_04_0700"
    INDEX 01 16:13:66
  TRACK 701 AUDIO
    TITLE "LR_black_phrase_04_0701"
    INDEX 01 16:15:63
  TRACK 702 AUDIO
    TITLE "LR_black_phrase_04_0702"
    INDEX 01 16:16:66
  TRACK 703 AUDIO
    TITLE "LR_black_phrase_04_0703"
    INDEX 01 16:18:24
  TRACK 704 AUDIO
    TITLE "LR_black_phrase_04_0704"
    INDEX 01 16:18:65
  TRACK 705 AUDIO
    TITLE "LR_black_phrase_04_0705"
    INDEX 01 16:20:37
  TRACK 706 AUDIO
    TITLE "LR_black_phrase_04_0706"
    INDEX 01 16:21:36
  TRACK 707 AUDIO
    TITLE "LR_black_phrase_04_0707"
    INDEX 01 16:24:25
  TRACK 708 AUDIO
    TITLE "LR_black_phrase_04_0708"
    INDEX 01 16:24:58
  TRACK 709 AUDIO
    TITLE "LR_black_phrase_04_0709"
    INDEX 01 16:27:37
  TRACK 710 AUDIO
    TITLE "LR_black_phrase_04_0710"
    INDEX 01 16:27:56
  TRACK 711 AUDIO
    TITLE "LR_black_phrase_04_0711"
    INDEX 01 16:30:37
  TRACK 712 AUDIO
    TITLE "LR_black_phrase_04_0712"
    INDEX 01 16:31:32
  TRACK 713 AUDIO
    TITLE "LR_black_phrase_04_0713"
    INDEX 01 16:32:53
  TRACK 714 AUDIO
    TITLE "LR_black_phrase_04_0714"
    INDEX 01 16:33:18
  TRACK 715 AUDIO
    TITLE "LR_black_phrase_04_0715"
    INDEX 01 16:34:50
  TRACK 716 AUDIO
    TITLE "LR_black_phrase_04_0716"
    INDEX 01 16:35:50
  TRACK 717 AUDIO
    TITLE "LR_black_phrase_04_0717"
    INDEX 01 16:37:68
  TRACK 718 AUDIO
    TITLE "LR_black_phrase_04_0718"
    INDEX 01 16:38:30
  TRACK 719 AUDIO
    TITLE "LR_black_phrase_04_0719"
    INDEX 01 16:40:63
  TRACK 720 AUDIO
    TITLE "LR_black_phrase_04_0720"
    INDEX 01 16:41:09
  TRACK 721 AUDIO
    TITLE "LR_black_phrase_04_0721"
    INDEX 01 16:43:43
  TRACK 722 AUDIO
    TITLE "LR_black_phrase_04_0722"
    INDEX 01 16:44:41
  TRACK 723 AUDIO
    TITLE "LR_black_phrase_04_0723"
    INDEX 01 16:46:01
  TRACK 724 AUDIO
    TITLE "LR_black_phrase_04_0724"
    INDEX 01 16:46:42
  TRACK 725 AUDIO
    TITLE "LR_black_phrase_04_0725"
    INDEX 01 16:48:03
  TRACK 726 AUDIO
    TITLE "LR_black_phrase_04_0726"
    INDEX 01 16:49:05
  TRACK 727 AUDIO
    TITLE "LR_black_phrase_04_0727"
    INDEX 01 16:51:29
  TRACK 728 AUDIO
    TITLE "LR_black_phrase_04_0728"
    INDEX 01 16:51:64
  TRACK 729 AUDIO
    TITLE "LR_black_phrase_04_0729"
    INDEX 01 16:54:67
  TRACK 730 AUDIO
    TITLE "LR_black_phrase_04_0730"
    INDEX 01 16:55:17
  TRACK 731 AUDIO
    TITLE "LR_black_phrase_04_0731"
    INDEX 01 16:58:19
  TRACK 732 AUDIO
    TITLE "LR_black_phrase_04_0732"
    INDEX 01 16:59:19
  TRACK 733 AUDIO
    TITLE "LR_black_phrase_04_0733"
    INDEX 01 17:00:48
  TRACK 734 AUDIO
    TITLE "LR_black_phrase_04_0734"
    INDEX 01 17:01:06
  TRACK 735 AUDIO
    TITLE "LR_black_phrase_04_0735"
    INDEX 01 17:04:01
  TRACK 736 AUDIO
    TITLE "LR_black_phrase_04_0736"
    INDEX 01 17:04:75
  TRACK 737 AUDIO
    TITLE "LR_black_phrase_04_0737"
    INDEX 01 17:07:71
  TRACK 738 AUDIO
    TITLE "LR_black_phrase_04_0738"
    INDEX 01 17:08:30
  TRACK 739 AUDIO
    TITLE "LR_black_phrase_04_0739"
    INDEX 01 17:10:70
  TRACK 740 AUDIO
    TITLE "LR_black_phrase_04_0740"
    INDEX 01 17:11:14
  TRACK 741 AUDIO
    TITLE "LR_black_phrase_04_0741"
    INDEX 01 17:13:54
  TRACK 742 AUDIO
    TITLE "LR_black_phrase_04_0742"
    INDEX 01 17:14:50
  TRACK 743 AUDIO
    TITLE "LR_black_phrase_04_0743"
    INDEX 01 17:15:57
  TRACK 744 AUDIO
    TITLE "LR_black_phrase_04_0744"
    INDEX 01 17:16:23
  TRACK 745 AUDIO
    TITLE "LR_black_phrase_04_0745"
    INDEX 01 17:18:55
  TRACK 746 AUDIO
    TITLE "LR_black_phrase_04_0746"
    INDEX 01 17:19:57
  TRACK 747 AUDIO
    TITLE "LR_black_phrase_04_0747"
    INDEX 01 17:21:11
  TRACK 748 AUDIO
    TITLE "LR_black_phrase_04_0748"
    INDEX 01 17:21:44
  TRACK 749 AUDIO
    TITLE "LR_black_phrase_04_0749"
    INDEX 01 17:23:57
  TRACK 750 AUDIO
    TITLE "LR_black_phrase_04_0750"
    INDEX 01 17:24:09
  TRACK 751 AUDIO
    TITLE "LR_black_phrase_04_0751"
    INDEX 01 17:26:20
  TRACK 752 AUDIO
    TITLE "LR_black_phrase_04_0752"
    INDEX 01 17:27:25
  TRACK 753 AUDIO
    TITLE "LR_black_phrase_04_0753"
    INDEX 01 17:28:40
  TRACK 754 AUDIO
    TITLE "LR_black_phrase_04_0754"
    INDEX 01 17:28:75
  TRACK 755 AUDIO
    TITLE "LR_black_phrase_04_0755"
    INDEX 01 17:32:22
  TRACK 756 AUDIO
    TITLE "LR_black_phrase_04_0756"
    INDEX 01 17:33:20
  TRACK 757 AUDIO
    TITLE "LR_black_phrase_04_0757"
    INDEX 01 17:35:52
  TRACK 758 AUDIO
    TITLE "LR_black_phrase_04_0758"
    INDEX 01 17:36:12
  TRACK 759 AUDIO
    TITLE "LR_black_phrase_04_0759"
    INDEX 01 17:38:42
  TRACK 760 AUDIO
    TITLE "LR_black_phrase_04_0760"
    INDEX 01 17:38:62
  TRACK 761 AUDIO
    TITLE "LR_black_phrase_04_0761"
    INDEX 01 17:41:17
  TRACK 762 AUDIO
    TITLE "LR_black_phrase_04_0762"
    INDEX 01 17:42:13
  TRACK 763 AUDIO
    TITLE "LR_black_phrase_04_0763"
    INDEX 01 17:43:28
  TRACK 764 AUDIO
    TITLE "LR_black_phrase_04_0764"
    INDEX 01 17:43:65
  TRACK 765 AUDIO
    TITLE "LR_black_phrase_04_0765"
    INDEX 01 17:46:24
  TRACK 766 AUDIO
    TITLE "LR_black_phrase_04_0766"
    INDEX 01 17:47:26
  TRACK 767 AUDIO
    TITLE "LR_black_phrase_04_0767"
    INDEX 01 17:50:14
  TRACK 768 AUDIO
    TITLE "LR_black_phrase_04_0768"
    INDEX 01 17:50:48
  TRACK 769 AUDIO
    TITLE "LR_black_phrase_04_0769"
    INDEX 01 17:53:05
  TRACK 770 AUDIO
    TITLE "LR_black_phrase_04_0770"
    INDEX 01 17:53:32
  TRACK 771 AUDIO
    TITLE "LR_black_phrase_04_0771"
    INDEX 01 17:55:63
  TRACK 772 AUDIO
    TITLE "LR_black_phrase_04_0772"
    INDEX 01 17:56:68
  TRACK 773 AUDIO
    TITLE "LR_black_phrase_04_0773"
    INDEX 01 17:57:75
  TRACK 774 AUDIO
    TITLE "LR_black_phrase_04_0774"
    INDEX 01 17:58:35
  TRACK 775 AUDIO
    TITLE "LR_black_phrase_04_0775"
    INDEX 01 17:59:66
  TRACK 776 AUDIO
    TITLE "LR_black_phrase_04_0776"
    INDEX 01 18:00:68
  TRACK 777 AUDIO
    TITLE "LR_black_phrase_04_0777"
    INDEX 01 18:03:11
  TRACK 778 AUDIO
    TITLE "LR_black_phrase_04_0778"
    INDEX 01 18:03:46
  TRACK 779 AUDIO
    TITLE "LR_black_phrase_04_0779"
    INDEX 01 18:05:49
  TRACK 780 AUDIO
    TITLE "LR_black_phrase_04_0780"
    INDEX 01 18:05:75
  TRACK 781 AUDIO
    TITLE "LR_black_phrase_04_0781"
    INDEX 01 18:08:01
  TRACK 782 AUDIO
    TITLE "LR_black_phrase_04_0782"
    INDEX 01 18:08:75
  TRACK 783 AUDIO
    TITLE "LR_black_phrase_04_0783"
    INDEX 01 18:10:21
  TRACK 784 AUDIO
    TITLE "LR_black_phrase_04_0784"
    INDEX 01 18:10:58
  TRACK 785 AUDIO
    TITLE "LR_black_phrase_04_0785"
    INDEX 01 18:13:31
  TRACK 786 AUDIO
    TITLE "LR_black_phrase_04_0786"
    INDEX 01 18:14:25
  TRACK 787 AUDIO
    TITLE "LR_black_phrase_04_0787"
    INDEX 01 18:17:05
  TRACK 788 AUDIO
    TITLE "LR_black_phrase_04_0788"
    INDEX 01 18:17:41
  TRACK 789 AUDIO
    TITLE "LR_black_phrase_04_0789"
    INDEX 01 18:20:13
  TRACK 790 AUDIO
    TITLE "LR_black_phrase_04_0790"
    INDEX 01 18:20:33
  TRACK 791 AUDIO
    TITLE "LR_black_phrase_04_0791"
    INDEX 01 18:23:06
  TRACK 792 AUDIO
    TITLE "LR_black_phrase_04_0792"
    INDEX 01 18:23:75
  TRACK 793 AUDIO
    TITLE "LR_black_phrase_04_0793"
    INDEX 01 18:25:17
  TRACK 794 AUDIO
    TITLE "LR_black_phrase_04_0794"
    INDEX 01 18:25:52
  TRACK 795 AUDIO
    TITLE "LR_black_phrase_04_0795"
    INDEX 01 18:27:68
  TRACK 796 AUDIO
    TITLE "LR_black_phrase_04_0796"
    INDEX 01 18:28:70
  TRACK 797 AUDIO
    TITLE "LR_black_phrase_04_0797"
    INDEX 01 18:30:45
  TRACK 798 AUDIO
    TITLE "LR_black_phrase_04_0798"
    INDEX 01 18:31:05
  TRACK 799 AUDIO
    TITLE "LR_black_phrase_04_0799"
    INDEX 01 18:33:04
  TRACK 800 AUDIO
    TITLE "LR_black_phrase_04_0800"
    INDEX 01 18:33:28
  TRACK 801 AUDIO
    TITLE "LR_black_phrase_04_0801"
    INDEX 01 18:35:27
  TRACK 802 AUDIO
    TITLE "LR_black_phrase_04_0802"
    INDEX 01 18:36:22
  TRACK 803 AUDIO
    TITLE "LR_black_phrase_04_0803"
    INDEX 01 18:37:43
  TRACK 804 AUDIO
    TITLE "LR_black_phrase_04_0804"
    INDEX 01 18:38:02
  TRACK 805 AUDIO
    TITLE "LR_black_phrase_04_0805"
    INDEX 01 18:40:42
  TRACK 806 AUDIO
    TITLE "LR_black_phrase_04_0806"
    INDEX 01 18:41:39
  TRACK 807 AUDIO
    TITLE "LR_black_phrase_04_0807"
    INDEX 01 18:44:20
  TRACK 808 AUDIO
    TITLE "LR_black_phrase_04_0808"
    INDEX 01 18:44:59
  TRACK 809 AUDIO
    TITLE "LR_black_phrase_04_0809"
    INDEX 01 18:47:08
  TRACK 810 AUDIO
    TITLE "LR_black_phrase_04_0810"
    INDEX 01 18:47:38
  TRACK 811 AUDIO
    TITLE "LR_black_phrase_04_0811"
    INDEX 01 18:49:62
  TRACK 812 AUDIO
    TITLE "LR_black_phrase_04_0812"
    INDEX 01 18:50:64
  TRACK 813 AUDIO
    TITLE "LR_black_phrase_04_0813"
    INDEX 01 18:51:73
  TRACK 814 AUDIO
    TITLE "LR_black_phrase_04_0814"
    INDEX 01 18:52:37
  TRACK 815 AUDIO
    TITLE "LR_black_phrase_04_0815"
    INDEX 01 18:54:54
  TRACK 816 AUDIO
    TITLE "LR_black_phrase_04_0816"
    INDEX 01 18:55:55
  TRACK 817 AUDIO
    TITLE "LR_black_phrase_04_0817"
    INDEX 01 18:57:30
  TRACK 818 AUDIO
    TITLE "LR_black_phrase_04_0818"
    INDEX 01 18:57:70
  TRACK 819 AUDIO
    TITLE "LR_black_phrase_04_0819"
    INDEX 01 18:59:55
  TRACK 820 AUDIO
    TITLE "LR_black_phrase_04_0820"
    INDEX 01 19:00:07
  TRACK 821 AUDIO
    TITLE "LR_black_phrase_04_0821"
    INDEX 01 19:01:67
  TRACK 822 AUDIO
    TITLE "LR_black_phrase_04_0822"
    INDEX 01 19:02:71
  TRACK 823 AUDIO
    TITLE "LR_black_phrase_04_0823"
    INDEX 01 19:04:30
  TRACK 824 AUDIO
    TITLE "LR_black_phrase_04_0824"
    INDEX 01 19:04:70
  TRACK 825 AUDIO
    TITLE "LR_black_phrase_04_0825"
    INDEX 01 19:06:49
  TRACK 826 AUDIO
    TITLE "LR_black_phrase_04_0826"
    INDEX 01 19:07:46
  TRACK 827 AUDIO
    TITLE "LR_black_phrase_04_0827"
    INDEX 01 19:09:18
  TRACK 828 AUDIO
    TITLE "LR_black_phrase_04_0828"
    INDEX 01 19:09:59
  TRACK 829 AUDIO
    TITLE "LR_black_phrase_04_0829"
    INDEX 01 19:11:68
  TRACK 830 AUDIO
    TITLE "LR_black_phrase_04_0830"
    INDEX 01 19:12:24
  TRACK 831 AUDIO
    TITLE "LR_black_phrase_04_0831"
    INDEX 01 19:14:31
  TRACK 832 AUDIO
    TITLE "LR_black_phrase_04_0832"
    INDEX 01 19:15:38
  TRACK 833 AUDIO
    TITLE "LR_black_phrase_04_0833"
    INDEX 01 19:16:39
  TRACK 834 AUDIO
    TITLE "LR_black_phrase_04_0834"
    INDEX 01 19:17:06
  TRACK 835 AUDIO
    TITLE "LR_black_phrase_04_0835"
    INDEX 01 19:19:67
  TRACK 836 AUDIO
    TITLE "LR_black_phrase_04_0836"
    INDEX 01 19:20:67
  TRACK 837 AUDIO
    TITLE "LR_black_phrase_04_0837"
    INDEX 01 19:23:20
  TRACK 838 AUDIO
    TITLE "LR_black_phrase_04_0838"
    INDEX 01 19:23:59
  TRACK 839 AUDIO
    TITLE "LR_black_phrase_04_0839"
    INDEX 01 19:25:48
  TRACK 840 AUDIO
    TITLE "LR_black_phrase_04_0840"
    INDEX 01 19:26:05
  TRACK 841 AUDIO
    TITLE "LR_black_phrase_04_0841"
    INDEX 01 19:27:67
  TRACK 842 AUDIO
    TITLE "LR_black_phrase_04_0842"
    INDEX 01 19:28:70
  TRACK 843 AUDIO
    TITLE "LR_black_phrase_04_0843"
    INDEX 01 19:30:24
  TRACK 844 AUDIO
    TITLE "LR_black_phrase_04_0844"
    INDEX 01 19:30:63
  TRACK 845 AUDIO
    TITLE "LR_black_phrase_04_0845"
    INDEX 01 19:33:14
  TRACK 846 AUDIO
    TITLE "LR_black_phrase_04_0846"
    INDEX 01 19:34:14
  TRACK 847 AUDIO
    TITLE "LR_black_phrase_04_0847"
    INDEX 01 19:36:23
  TRACK 848 AUDIO
    TITLE "LR_black_phrase_04_0848"
    INDEX 01 19:36:64
  TRACK 849 AUDIO
    TITLE "LR_black_phrase_04_0849"
    INDEX 01 19:38:70
  TRACK 850 AUDIO
    TITLE "LR_black_phrase_04_0850"
    INDEX 01 19:39:25
  TRACK 851 AUDIO
    TITLE "LR_black_phrase_04_0851"
    INDEX 01 19:41:32
  TRACK 852 AUDIO
    TITLE "LR_black_phrase_04_0852"
    INDEX 01 19:42:37
  TRACK 853 AUDIO
    TITLE "LR_black_phrase_04_0853"
    INDEX 01 19:43:56
  TRACK 854 AUDIO
    TITLE "LR_black_phrase_04_0854"
    INDEX 01 19:44:20
  TRACK 855 AUDIO
    TITLE "LR_black_phrase_04_0855"
    INDEX 01 19:46:62
  TRACK 856 AUDIO
    TITLE "LR_black_phrase_04_0856"
    INDEX 01 19:47:62
  TRACK 857 AUDIO
    TITLE "LR_black_phrase_04_0857"
    INDEX 01 19:49:25
  TRACK 858 AUDIO
    TITLE "LR_black_phrase_04_0858"
    INDEX 01 19:49:66
  TRACK 859 AUDIO
    TITLE "LR_black_phrase_04_0859"
    INDEX 01 19:51:55
  TRACK 860 AUDIO
    TITLE "LR_black_phrase_04_0860"
    INDEX 01 19:52:10
  TRACK 861 AUDIO
    TITLE "LR_black_phrase_04_0861"
    INDEX 01 19:54:01
  TRACK 862 AUDIO
    TITLE "LR_black_phrase_04_0862"
    INDEX 01 19:55:04
  TRACK 863 AUDIO
    TITLE "LR_black_phrase_04_0863"
    INDEX 01 19:56:27
  TRACK 864 AUDIO
    TITLE "LR_black_phrase_04_0864"
    INDEX 01 19:56:68
  TRACK 865 AUDIO
    TITLE "LR_black_phrase_04_0865"
    INDEX 01 19:59:29
  TRACK 866 AUDIO
    TITLE "LR_black_phrase_04_0866"
    INDEX 01 20:00:27
  TRACK 867 AUDIO
    TITLE "LR_black_phrase_04_0867"
    INDEX 01 20:02:28
  TRACK 868 AUDIO
    TITLE "LR_black_phrase_04_0868"
    INDEX 01 20:02:67
  TRACK 869 AUDIO
    TITLE "LR_black_phrase_04_0869"
    INDEX 01 20:05:32
  TRACK 870 AUDIO
    TITLE "LR_black_phrase_04_0870"
    INDEX 01 20:05:61
  TRACK 871 AUDIO
    TITLE "LR_black_phrase_04_0871"
    INDEX 01 20:08:28
  TRACK 872 AUDIO
    TITLE "LR_black_phrase_04_0872"
    INDEX 01 20:09:34
  TRACK 873 AUDIO
    TITLE "LR_black_phrase_04_0873"
    INDEX 01 20:10:47
  TRACK 874 AUDIO
    TITLE "LR_black_phrase_04_0874"
    INDEX 01 20:11:13
  TRACK 875 AUDIO
    TITLE "LR_black_phrase_04_0875"
    INDEX 01 20:13:75
  TRACK 876 AUDIO
    TITLE "LR_black_phrase_04_0876"
    INDEX 01 20:14:74
  TRACK 877 AUDIO
    TITLE "LR_black_phrase_04_0877"
    INDEX 01 20:16:65
  TRACK 878 AUDIO
    TITLE "LR_black_phrase_04_0878"
    INDEX 01 20:17:29
  TRACK 879 AUDIO
    TITLE "LR_black_phrase_04_0879"
    INDEX 01 20:19:18
  TRACK 880 AUDIO
    TITLE "LR_black_phrase_04_0880"
    INDEX 01 20:19:50
  TRACK 881 AUDIO
    TITLE "LR_black_phrase_04_0881"
    INDEX 01 20:21:41
  TRACK 882 AUDIO
    TITLE "LR_black_phrase_04_0882"
    INDEX 01 20:22:44
  TRACK 883 AUDIO
    TITLE "LR_black_phrase_04_0883"
    INDEX 01 20:24:02
  TRACK 884 AUDIO
    TITLE "LR_black_phrase_04_0884"
    INDEX 01 20:24:39
  TRACK 885 AUDIO
    TITLE "LR_black_phrase_04_0885"
    INDEX 01 20:27:32
  TRACK 886 AUDIO
    TITLE "LR_black_phrase_04_0886"
    INDEX 01 20:28:35
  TRACK 887 AUDIO
    TITLE "LR_black_phrase_04_0887"
    INDEX 01 20:30:48
  TRACK 888 AUDIO
    TITLE "LR_black_phrase_04_0888"
    INDEX 01 20:31:12
  TRACK 889 AUDIO
    TITLE "LR_black_phrase_04_0889"
    INDEX 01 20:33:36
  TRACK 890 AUDIO
    TITLE "LR_black_phrase_04_0890"
    INDEX 01 20:33:66
  TRACK 891 AUDIO
    TITLE "LR_black_phrase_04_0891"
    INDEX 01 20:36:13
  TRACK 892 AUDIO
    TITLE "LR_black_phrase_04_0892"
    INDEX 01 20:37:18
  TRACK 893 AUDIO
    TITLE "LR_black_phrase_04_0893"
    INDEX 01 20:38:31
  TRACK 894 AUDIO
    TITLE "LR_black_phrase_04_0894"
    INDEX 01 20:38:69
  TRACK 895 AUDIO
    TITLE "LR_black_phrase_04_0895"
    INDEX 01 20:41:40
  TRACK 896 AUDIO
    TITLE "LR_black_phrase_04_0896"
    INDEX 01 20:42:39
  TRACK 897 AUDIO
    TITLE "LR_black_phrase_04_0897"
    INDEX 01 20:44:26
  TRACK 898 AUDIO
    TITLE "LR_black_phrase_04_0898"
    INDEX 01 20:44:65
  TRACK 899 AUDIO
    TITLE "LR_black_phrase_04_0899"
    INDEX 01 20:46:45
  TRACK 900 AUDIO
    TITLE "LR_black_phrase_04_0900"
    INDEX 01 20:46:74
  TRACK 901 AUDIO
    TITLE "LR_black_phrase_04_0901"
    INDEX 01 20:48:53
  TRACK 902 AUDIO
    TITLE "LR_black_phrase_04_0902"
    INDEX 01 20:49:55
  TRACK 903 AUDIO
    TITLE "LR_black_phrase_04_0903"
    INDEX 01 20:50:62
  TRACK 904 AUDIO
    TITLE "LR_black_phrase_04_0904"
    INDEX 01 20:51:22
  TRACK 905 AUDIO
    TITLE "LR_black_phrase_04_0905"
    INDEX 01 20:52:30
  TRACK 906 AUDIO
    TITLE "LR_black_phrase_04_0906"
    INDEX 01 20:53:31
  TRACK 907 AUDIO
    TITLE "LR_black_phrase_04_0907"
    INDEX 01 20:56:04
  TRACK 908 AUDIO
    TITLE "LR_black_phrase_04_0908"
    INDEX 01 20:56:45
  TRACK 909 AUDIO
    TITLE "LR_black_phrase_04_0909"
    INDEX 01 20:59:41
  TRACK 910 AUDIO
    TITLE "LR_black_phrase_04_0910"
    INDEX 01 20:59:67
  TRACK 911 AUDIO
    TITLE "LR_black_phrase_04_0911"
    INDEX 01 21:02:63
  TRACK 912 AUDIO
    TITLE "LR_black_phrase_04_0912"
    INDEX 01 21:03:59
  TRACK 913 AUDIO
    TITLE "LR_black_phrase_04_0913"
    INDEX 01 21:05:03
  TRACK 914 AUDIO
    TITLE "LR_black_phrase_04_0914"
    INDEX 01 21:05:40
  TRACK 915 AUDIO
    TITLE "LR_black_phrase_04_0915"
    INDEX 01 21:06:53
  TRACK 916 AUDIO
    TITLE "LR_black_phrase_04_0916"
    INDEX 01 21:07:53
  TRACK 917 AUDIO
    TITLE "LR_black_phrase_04_0917"
    INDEX 01 21:09:71
  TRACK 918 AUDIO
    TITLE "LR_black_phrase_04_0918"
    INDEX 01 21:10:30
  TRACK 919 AUDIO
    TITLE "LR_black_phrase_04_0919"
    INDEX 01 21:12:44
  TRACK 920 AUDIO
    TITLE "LR_black_phrase_04_0920"
    INDEX 01 21:12:66
  TRACK 921 AUDIO
    TITLE "LR_black_phrase_04_0921"
    INDEX 01 21:15:03
  TRACK 922 AUDIO
    TITLE "LR_black_phrase_04_0922"
    INDEX 01 21:15:74
  TRACK 923 AUDIO
    TITLE "LR_black_phrase_04_0923"
    INDEX 01 21:17:04
  TRACK 924 AUDIO
    TITLE "LR_black_phrase_04_0924"
    INDEX 01 21:17:39
  TRACK 925 AUDIO
    TITLE "LR_black_phrase_04_0925"
    INDEX 01 21:18:68
  TRACK 926 AUDIO
    TITLE "LR_black_phrase_04_0926"
    INDEX 01 21:19:68
  TRACK 927 AUDIO
    TITLE "LR_black_phrase_04_0927"
    INDEX 01 21:21:61
  TRACK 928 AUDIO
    TITLE "LR_black_phrase_04_0928"
    INDEX 01 21:22:17
  TRACK 929 AUDIO
    TITLE "LR_black_phrase_04_0929"
    INDEX 01 21:23:69
  TRACK 930 AUDIO
    TITLE "LR_black_phrase_04_0930"
    INDEX 01 21:24:16
  TRACK 931 AUDIO
    TITLE "LR_black_phrase_04_0931"
    INDEX 01 21:25:66
  TRACK 932 AUDIO
    TITLE "LR_black_phrase_04_0932"
    INDEX 01 21:26:64
  TRACK 933 AUDIO
    TITLE "LR_black_phrase_04_0933"
    INDEX 01 21:28:02
  TRACK 934 AUDIO
    TITLE "LR_black_phrase_04_0934"
    INDEX 01 21:28:43
  TRACK 935 AUDIO
    TITLE "LR_black_phrase_04_0935"
    INDEX 01 21:30:13
  TRACK 936 AUDIO
    TITLE "LR_black_phrase_04_0936"
    INDEX 01 21:31:12
  TRACK 937 AUDIO
    TITLE "LR_black_phrase_04_0937"
    INDEX 01 21:33:44
  TRACK 938 AUDIO
    TITLE "LR_black_phrase_04_0938"
    INDEX 01 21:34:03
  TRACK 939 AUDIO
    TITLE "LR_black_phrase_04_0939"
    INDEX 01 21:36:58
  TRACK 940 AUDIO
    TITLE "LR_black_phrase_04_0940"
    INDEX 01 21:37:05
  TRACK 941 AUDIO
    TITLE "LR_black_phrase_04_0941"
    INDEX 01 21:39:61
  TRACK 942 AUDIO
    TITLE "LR_black_phrase_04_0942"
    INDEX 01 21:40:56
  TRACK 943 AUDIO
    TITLE "LR_black_phrase_04_0943"
    INDEX 01 21:41:67
  TRACK 944 AUDIO
    TITLE "LR_black_phrase_04_0944"
    INDEX 01 21:42:30
  TRACK 945 AUDIO
    TITLE "LR_black_phrase_04_0945"
    INDEX 01 21:44:52
  TRACK 946 AUDIO
    TITLE "LR_black_phrase_04_0946"
    INDEX 01 21:45:49
  TRACK 947 AUDIO
    TITLE "LR_black_phrase_04_0947"
    INDEX 01 21:47:68
  TRACK 948 AUDIO
    TITLE "LR_black_phrase_04_0948"
    INDEX 01 21:48:26
  TRACK 949 AUDIO
    TITLE "LR_black_phrase_04_0949"
    INDEX 01 21:50:37
  TRACK 950 AUDIO
    TITLE "LR_black_phrase_04_0950"
    INDEX 01 21:50:56
  TRACK 951 AUDIO
    TITLE "LR_black_phrase_04_0951"
    INDEX 01 21:52:67
  TRACK 952 AUDIO
    TITLE "LR_black_phrase_04_0952"
    INDEX 01 21:53:65
  TRACK 953 AUDIO
    TITLE "LR_black_phrase_04_0953"
    INDEX 01 21:54:64
  TRACK 954 AUDIO
    TITLE "LR_black_phrase_04_0954"
    INDEX 01 21:55:24
  TRACK 955 AUDIO
    TITLE "LR_black_phrase_04_0955"
    INDEX 01 21:57:37
  TRACK 956 AUDIO
    TITLE "LR_black_phrase_04_0956"
    INDEX 01 21:58:38
  TRACK 957 AUDIO
    TITLE "LR_black_phrase_04_0957"
    INDEX 01 22:00:06
  TRACK 958 AUDIO
    TITLE "LR_black_phrase_04_0958"
    INDEX 01 22:00:41
  TRACK 959 AUDIO
    TITLE "LR_black_phrase_04_0959"
    INDEX 01 22:02:46
  TRACK 960 AUDIO
    TITLE "LR_black_phrase_04_0960"
    INDEX 01 22:02:64
  TRACK 961 AUDIO
    TITLE "LR_black_phrase_04_0961"
    INDEX 01 22:04:70
  TRACK 962 AUDIO
    TITLE "LR_black_phrase_04_0962"
    INDEX 01 22:05:70
  TRACK 963 AUDIO
    TITLE "LR_black_phrase_04_0963"
    INDEX 01 22:07:02
  TRACK 964 AUDIO
    TITLE "LR_black_phrase_04_0964"
    INDEX 01 22:07:35
  TRACK 965 AUDIO
    TITLE "LR_black_phrase_04_0965"
    INDEX 01 22:10:14
  TRACK 966 AUDIO
    TITLE "LR_black_phrase_04_0966"
    INDEX 01 22:11:16
  TRACK 967 AUDIO
    TITLE "LR_black_phrase_04_0967"
    INDEX 01 22:13:59
  TRACK 968 AUDIO
    TITLE "LR_black_phrase_04_0968"
    INDEX 01 22:14:20
  TRACK 969 AUDIO
    TITLE "LR_black_phrase_04_0969"
    INDEX 01 22:16:50
  TRACK 970 AUDIO
    TITLE "LR_black_phrase_04_0970"
    INDEX 01 22:16:72
  TRACK 971 AUDIO
    TITLE "LR_black_phrase_04_0971"
    INDEX 01 22:19:27
  TRACK 972 AUDIO
    TITLE "LR_black_phrase_04_0972"
    INDEX 01 22:20:24
  TRACK 973 AUDIO
    TITLE "LR_black_phrase_04_0973"
    INDEX 01 22:21:22
  TRACK 974 AUDIO
    TITLE "LR_black_phrase_04_0974"
    INDEX 01 22:21:57
  TRACK 975 AUDIO
    TITLE "LR_black_phrase_04_0975"
    INDEX 01 22:24:48
  TRACK 976 AUDIO
    TITLE "LR_black_phrase_04_0976"
    INDEX 01 22:25:47
  TRACK 977 AUDIO
    TITLE "LR_black_phrase_04_0977"
    INDEX 01 22:27:75
  TRACK 978 AUDIO
    TITLE "LR_black_phrase_04_0978"
    INDEX 01 22:28:34
  TRACK 979 AUDIO
    TITLE "LR_black_phrase_04_0979"
    INDEX 01 22:30:58
  TRACK 980 AUDIO
    TITLE "LR_black_phrase_04_0980"
    INDEX 01 22:31:03
  TRACK 981 AUDIO
    TITLE "LR_black_phrase_04_0981"
    INDEX 01 22:33:25
  TRACK 982 AUDIO
    TITLE "LR_black_phrase_04_0982"
    INDEX 01 22:34:20
  TRACK 983 AUDIO
    TITLE "LR_black_phrase_04_0983"
    INDEX 01 22:35:28
  TRACK 984 AUDIO
    TITLE "LR_black_phrase_04_0984"
    INDEX 01 22:35:65
  TRACK 985 AUDIO
    TITLE "LR_black_phrase_04_0985"
    INDEX 01 22:38:01
  TRACK 986 AUDIO
    TITLE "LR_black_phrase_04_0986"
    INDEX 01 22:38:75
  TRACK 987 AUDIO
    TITLE "LR_black_phrase_04_0987"
    INDEX 01 22:41:24
  TRACK 988 AUDIO
    TITLE "LR_black_phrase_04_0988"
    INDEX 01 22:41:60
  TRACK 989 AUDIO
    TITLE "LR_black_phrase_04_0989"
    INDEX 01 22:44:15
  TRACK 990 AUDIO
    TITLE "LR_black_phrase_04_0990"
    INDEX 01 22:44:35
  TRACK 991 AUDIO
    TITLE "LR_black_phrase_04_0991"
    INDEX 01 22:46:67
  TRACK 992 AUDIO
    TITLE "LR_black_phrase_04_0992"
    INDEX 01 22:47:62
  TRACK 993 AUDIO
    TITLE "LR_black_phrase_04_0993"
    INDEX 01 22:49:02
  TRACK 994 AUDIO
    TITLE "LR_black_phrase_04_0994"
    INDEX 01 22:49:45
  TRACK 995 AUDIO
    TITLE "LR_black_phrase_04_0995"
    INDEX 01 22:52:14
  TRACK 996 AUDIO
    TITLE "LR_black_phrase_04_0996"
    INDEX 01 22:53:16
  TRACK 997 AUDIO
    TITLE "LR_black_phrase_04_0997"
    INDEX 01 22:55:01
  TRACK 998 AUDIO
    TITLE "LR_black_phrase_04_0998"
    INDEX 01 22:55:34
  TRACK 999 AUDIO
    TITLE "LR_black_phrase_04_0999"
    INDEX 01 22:57:29
  TRACK 1000 AUDIO
    TITLE "LR_black_phrase_04_1000"
    INDEX 01 22:57:49
  TRACK 1001 AUDIO
    TITLE "LR_black_phrase_04_1001"
    INDEX 01 22:59:44
